<?xml version="1.0" standalone="no"?>
<!DOCTYPE svg PUBLIC "-//W3C//DTD SVG 1.1//EN" "http://www.w3.org/Graphics/SVG/1.1/DTD/svg11.dtd">
<svg xmlns="http://www.w3.org/2000/svg">
<metadata>Copyright (C) 2020 by original authors @ fontello.com</metadata>
<defs>
<font id="fontello" horiz-adv-x="1000" >
<font-face font-family="fontello" font-weight="400" font-stretch="normal" units-per-em="1000" ascent="850" descent="-150" />
<missing-glyph horiz-adv-x="1000" />
<glyph glyph-name="alert-triangle" unicode="&#xe800;" d="M458 475c0 23 19 42 42 42 23 0 42-19 42-42v-167c0-23-19-41-42-41-23 0-42 18-42 41v167z m0-292c0 23 19 42 42 42 23 0 42-19 42-42 0-23-19-41-42-41-23 0-42 18-42 41z m411-98c-9-17-28-27-49-27h-640c-21 0-40 10-49 27-5 8-11 24 0 43l320 530c19 32 79 32 98 0l320-530c11-19 5-35 0-43z m71 86l-320 530c-25 41-70 66-120 66-50 0-95-25-120-66l-320-530c-24-40-24-87-2-127 24-42 71-69 122-69h640c51 0 98 27 122 69 22 40 22 87-2 127z" horiz-adv-x="1000" />

<glyph glyph-name="all-done" unicode="&#xe801;" d="M692 591c-18 14-44 11-58-7l-294-375-141 175c-14 17-40 20-58 6-18-15-21-41-7-59l174-215c8-10 20-16 32-16h1c12 0 24 6 32 16l327 417c14 18 11 44-8 58z m209 0c-18 14-45 11-59-7l-294-375-25 31-53-67 46-57c8-10 20-16 33-16h0c13 0 25 6 33 16l326 417c14 18 11 44-7 58z m-485-218l-53-67-20 25c-15 18-12 44 6 59 18 14 44 11 59-6l8-11z" horiz-adv-x="1000" />

<glyph glyph-name="archive" unicode="&#xe802;" d="M411 267h178c20 0 36 16 36 36v11c0 20-16 36-36 36h-178c-20 0-36-16-36-36v-11c0-20 16-36 36-36z m339-167c0-23-19-42-42-42h-416c-23 0-42 19-42 42v375h500v-375z m-500 542h500c23 0 42-19 42-42 0-23-19-42-42-42h-500c-23 0-42 19-42 42 0 23 19 42 42 42z m625-42c0 69-56 125-125 125h-500c-69 0-125-56-125-125 0-37 16-70 42-92v-408c0-69 56-125 125-125h416c69 0 125 56 125 125v408c26 22 42 55 42 92z" horiz-adv-x="1000" />

<glyph glyph-name="arrow-circle-down" unicode="&#xe803;" d="M596 333l-54-52v236c0 23-19 41-42 41-23 0-42-18-42-41v-233l-54 54c-16 16-42 16-58 0-17-16-17-43 0-59l125-125c3-4 8-7 13-9 5-2 11-3 16-3 5 0 11 1 16 3 2 1 4 3 6 4 3 2 5 2 7 4l125 120c16 15 17 42 1 58-16 17-42 18-59 2z m-96-316c-184 0-333 149-333 333 0 184 149 333 333 333 184 0 333-149 333-333 0-184-149-333-333-333z m0 750c-230 0-417-187-417-417 0-230 187-417 417-417 230 0 417 187 417 417 0 230-187 417-417 417z" horiz-adv-x="1000" />

<glyph glyph-name="arrow-circle-left" unicode="&#xe804;" d="M667 392h-236l52 54c16 17 15 43-2 59-16 16-43 15-58-1l-120-125c-1-2-2-4-3-6-2-2-4-5-5-7-2-4-2-8-2-12-1-1-1-3-1-4 0 0 0 0 0 0 0-6 1-11 3-16 2-5 5-10 9-13l125-125c8-9 19-13 29-13 11 0 22 4 30 13 16 16 16 42 0 59l-54 53h233c23 0 41 19 41 42 0 23-18 42-41 42z m-167-375c-184 0-333 149-333 333 0 184 149 333 333 333 184 0 333-149 333-333 0-184-149-333-333-333z m0 750c-230 0-417-187-417-417 0-230 187-417 417-417 230 0 417 187 417 417 0 230-187 417-417 417z" horiz-adv-x="1000" />

<glyph glyph-name="arrow-circle-right" unicode="&#xe805;" d="M708 350c0 0 0 0 0 0 0 1 0 3 0 4-1 4-1 8-3 12-1 2-3 5-5 7-1 2-2 4-3 6l-119 125c-16 16-43 17-59 1-17-16-18-42-2-59l52-54h-236c-23 0-41-19-41-42 0-23 18-42 41-42h233l-54-54c-16-16-16-42 0-58 8-9 19-13 30-13 10 0 21 4 29 13l125 125c4 3 7 8 9 13 2 5 3 10 3 16z m-208-333c-184 0-333 149-333 333 0 184 149 333 333 333 184 0 333-149 333-333 0-184-149-333-333-333z m0 750c-230 0-417-187-417-417 0-230 187-417 417-417 230 0 417 187 417 417 0 230-187 417-417 417z" horiz-adv-x="1000" />

<glyph glyph-name="arrow-circle-up" unicode="&#xe806;" d="M530 546c-4 4-9 7-14 9-5 2-10 3-16 3 0 0 0 0 0 0-1 0-3 0-4 0-4-1-8-1-12-3-2-1-5-3-7-5-2-1-4-2-6-3l-125-119c-16-16-17-43-1-59 16-17 42-18 59-2l54 52v-236c0-23 19-41 42-41 23 0 42 18 42 41v233l54-54c8-8 18-12 29-12 11 0 21 4 30 12 16 17 16 43 0 59l-125 125z m-30-529c-184 0-333 149-333 333 0 184 149 333 333 333 184 0 333-149 333-333 0-184-149-333-333-333z m0 750c-230 0-417-187-417-417 0-230 187-417 417-417 230 0 417 187 417 417 0 230-187 417-417 417z" horiz-adv-x="1000" />

<glyph glyph-name="arrow-down" unicode="&#xe807;" d="M782 293c-15 18-41 20-59 6l-181-152v495c0 23-19 41-42 41-23 0-42-18-42-41v-495l-181 152c-18 14-44 12-59-6-15-17-12-44 5-58l250-209c2-1 5-2 7-3 2-1 3-2 5-3 5-2 10-3 15-3 5 0 10 1 15 3 2 1 4 2 5 3 2 1 5 2 7 3l250 209c17 14 20 41 5 58z" horiz-adv-x="1000" />

<glyph glyph-name="arrow-down-1" unicode="&#xe808;" d="M337 433l163-201 166 201h-329z m163-291c-21 0-41 9-55 26l-176 213c-21 25-25 61-11 92 13 27 38 44 67 44h351c28 0 53-17 66-44 14-31 10-67-11-92l-176-213c-14-17-34-26-55-26z" horiz-adv-x="1000" />

<glyph glyph-name="arrowhead-down" unicode="&#xe809;" d="M500 350c-9 0-19 3-27 10l-250 208c-17 15-20 41-5 59 15 17 41 20 59 5l224-186 223 179c18 15 44 12 59-6 14-18 11-44-7-59l-250-201c-7-6-17-9-26-9z m1-196l223 180c18 14 44 11 59-7 14-18 11-44-7-58l-250-201c-7-7-17-10-26-10-9 0-19 4-27 10l-250 208c-17 15-20 41-5 59 15 18 41 20 59 5l224-186z" horiz-adv-x="1000" />

<glyph glyph-name="arrowhead-left" unicode="&#xe80a;" d="M782 573l-186-223 179-224c15-18 12-44-6-58-8-7-17-10-26-10-12 0-24 6-33 16l-201 250c-12 15-12 38 1 53l208 250c15 17 41 20 59 5 17-15 20-41 5-59z m-356 54c15 17 41 20 59 5 18-15 20-41 5-59l-186-223 180-224c14-18 11-44-7-58-7-7-17-10-26-10-12 0-24 6-32 16l-201 250c-13 15-13 37 0 53l208 250z" horiz-adv-x="1000" />

<glyph glyph-name="arrowhead-right" unicode="&#xe80b;" d="M581 626l202-250c12-15 12-37-1-53l-208-250c-9-9-20-15-32-15-10 0-19 4-27 10-18 15-20 41-5 59l186 224-180 223c-14 18-11 44 7 59 18 14 44 11 58-7z m-350 7c18 14 44 11 59-7l201-250c12-15 12-37-1-53l-208-250c-8-9-20-15-32-15-9 0-19 4-27 10-17 15-20 41-5 59l187 224-180 223c-15 18-12 44 6 59z" horiz-adv-x="1000" />

<glyph glyph-name="arrowhead-up" unicode="&#xe80c;" d="M500 546l-224-180c-18-14-44-11-58 7-15 18-12 44 6 58l250 202c15 12 37 12 53-1l250-208c17-15 20-41 5-59-8-10-20-15-32-15-9 0-19 3-27 10l-223 186z m-26-205c15 12 37 12 53-1l250-208c17-15 20-41 5-59-8-10-20-15-32-15-9 0-19 4-27 10l-223 187-224-180c-18-15-44-12-58 6-15 18-12 44 6 59l250 201z" horiz-adv-x="1000" />

<glyph glyph-name="arrow-ios-down" unicode="&#xe80d;" d="M500 183c-9 0-19 4-27 10l-250 208c-17 15-20 41-5 59 15 18 41 20 59 5l224-186 223 180c18 14 44 11 59-7 14-18 11-44-7-58l-250-201c-7-7-17-10-26-10z" horiz-adv-x="1000" />

<glyph glyph-name="arrow-ios-left" unicode="&#xe80e;" d="M576 58c-12 0-24 6-32 16l-201 250c-13 15-13 37 0 53l208 250c15 17 41 20 59 5 18-15 20-41 5-59l-186-223 180-224c14-18 11-44-7-58-7-7-17-10-26-10z" horiz-adv-x="1000" />

<glyph glyph-name="arrow-ios-right" unicode="&#xe80f;" d="M417 58c-10 0-19 4-27 10-18 15-20 41-5 59l186 224-180 223c-14 18-11 44 7 59 18 14 44 11 58-7l202-250c12-15 12-37-1-53l-208-250c-9-9-20-15-32-15z" horiz-adv-x="1000" />

<glyph glyph-name="arrow-ios-up" unicode="&#xe810;" d="M750 225c-9 0-19 3-27 10l-223 186-224-180c-18-14-44-11-58 7-15 18-12 44 6 58l250 202c15 12 37 12 53-1l250-208c17-15 20-41 5-59-8-10-20-15-32-15z" horiz-adv-x="1000" />

<glyph glyph-name="arrow-left" unicode="&#xe811;" d="M792 392h-495l152 181c14 18 12 44-6 59-17 15-44 12-58-5l-209-250c-1-2-2-5-3-7-1-1-2-3-3-5-2-5-3-10-3-15 0 0 0 0 0 0 0 0 0 0 0 0 0-5 1-10 3-15 1-2 2-3 3-5 1-2 2-5 3-7l209-250c8-9 20-15 32-15 9 0 19 4 26 10 18 15 20 41 6 59l-152 181h495c23 0 41 19 41 42 0 23-18 42-41 42z" horiz-adv-x="1000" />

<glyph glyph-name="arrow-right" unicode="&#xe812;" d="M208 308h495l-152-181c-14-18-12-44 6-59 17-15 44-12 58 5l209 250c1 2 2 5 3 7 1 2 3 3 3 5 2 5 3 10 3 15 0 0 0 0 0 0 0 0 0 0 0 0 0 5-1 10-3 15 0 2-2 4-3 5-1 2-2 5-3 7l-209 250c-8 10-20 15-32 15-9 0-18-3-26-10-18-15-20-41-6-59l152-181h-495c-23 0-41-19-41-42 0-23 18-42 41-42z" horiz-adv-x="1000" />

<glyph glyph-name="arrow-right-1" unicode="&#xe813;" d="M438 516v-329l200 163-200 166z m-2-416c-13 0-26 3-38 8-27 13-44 38-44 67v351c0 28 17 53 44 66 30 14 67 10 92-11l212-176c18-14 27-34 27-55 0-21-9-41-27-55l-212-176c-15-12-35-19-54-19z" horiz-adv-x="1000" />

<glyph glyph-name="arrow-up" unicode="&#xe814;" d="M218 407c15-18 41-20 59-6l181 152v-495c0-23 19-41 42-41 23 0 42 18 42 41v495l181-152c18-14 44-12 59 6 15 17 12 44-5 58l-250 209c-2 1-5 2-7 3-1 1-3 3-5 3-5 2-10 3-15 3-5 0-10-1-15-3-2 0-3-2-5-3-2-1-5-2-7-3l-250-209c-17-14-20-41-5-58z" horiz-adv-x="1000" />

<glyph glyph-name="arrow-up-1" unicode="&#xe815;" d="M334 267h329l-163 201-166-201z m342-84h-352c-28 0-53 17-66 44-14 31-10 67 11 92l176 213c28 34 82 34 110 0l176-213c21-25 25-61 11-92-13-27-38-44-66-44z" horiz-adv-x="1000" />

<glyph glyph-name="arrrow-left" unicode="&#xe816;" d="M362 350l201-166v329l-201-163z m202-250c-19 0-39 7-54 19l-212 176c-17 14-27 34-27 55 0 21 10 41 27 55l212 176c25 21 62 25 92 11 27-13 44-38 44-66v-351c0-29-17-54-44-67-12-5-25-8-38-8z" horiz-adv-x="1000" />

<glyph glyph-name="at" unicode="&#xe817;" d="M466 221c-71 0-129 58-129 129 0 71 58 129 129 129 71 0 129-58 129-129 0-71-58-129-129-129z m74 544c-125 12-248-33-336-121-88-89-131-212-119-337 15-149 109-278 245-338 55-24 113-36 170-36 90 0 180 30 253 86 19 14 22 40 8 59-14 18-40 21-58 7-97-74-227-89-339-39-107 46-184 152-196 270-10 100 25 198 96 269 70 71 168 106 268 97 169-16 301-166 301-341v-28c0-20-7-38-22-52-14-13-32-20-52-19-37 1-67 36-67 78v180c0 23-19 42-42 42-21 0-38-16-41-37-37 35-88 57-143 57-117 0-212-95-212-212 0-117 95-212 212-212 71 0 133 35 172 89 27-39 69-66 118-68 42-3 82 13 113 42 31 30 48 69 48 112v28c0 218-166 404-377 424z" horiz-adv-x="1000" />

<glyph glyph-name="attach" unicode="&#xe818;" d="M500-67c-138 0-250 107-250 238v424c0 94 81 172 181 172 99 0 180-78 180-172l0-424c0-59-50-107-111-107-61 0-111 48-111 107l0 391c0 23 19 41 42 41h0c23 0 41-18 41-41l0-391c0-13 12-24 28-24 15 0 28 11 28 24l0 424c0 49-44 88-97 88-54 0-98-39-98-88v-424c0-85 75-154 167-154 92 0 167 69 167 154v424c0 23 18 41 41 41 23 0 42-18 42-41v-424c0-131-112-238-250-238z" horiz-adv-x="1000" />

<glyph glyph-name="attach-2" unicode="&#xe819;" d="M387-25c-69 0-134 28-184 78-100 100-104 259-10 354l308 310c32 32 76 50 122 50 50 0 97-20 133-56 72-73 74-187 6-256l-308-310c-20-20-47-31-76-31-30 0-59 12-81 35-44 44-45 114-3 157l284 285c17 17 43 17 59 0 17-16 17-42 0-58l-284-286c-10-10-9-28 3-40 6-6 14-9 22-9 5 0 11 1 17 6l308 310c36 36 33 98-6 138-38 38-102 41-137 6l-307-310c-63-62-59-168 9-236 34-35 79-54 125-54 42 0 81 16 109 45l308 309c16 17 42 17 59 0 16-16 16-42 0-58l-308-310c-44-45-104-69-168-69z" horiz-adv-x="1000" />

<glyph glyph-name="award" unicode="&#xe81a;" d="M513 154c-13 7-29 7-41-1l-157-91 62 238c36-21 78-33 123-33 45 0 87 12 124 33l62-242-173 96z m-13 529c92 0 167-74 167-166 0-92-75-167-167-167-92 0-167 75-167 167 0 92 75 166 167 166z m290-698l-96 375c35 43 56 97 56 157 0 138-112 250-250 250-138 0-250-112-250-250 0-60 21-114 56-157l-96-375c-5-16 2-33 15-43 13-10 32-11 46-3l222 131 237-132c6-3 13-5 20-5 9 0 18 3 26 9 13 10 19 27 14 43z" horiz-adv-x="1000" />

<glyph glyph-name="backspace" unicode="&#xe81b;" d="M471 237c8-8 18-12 29-12 11 0 21 4 30 12l53 54 54-54c8-8 19-12 30-12 10 0 21 4 29 12 16 17 16 43 0 59l-54 54 54 54c16 16 16 43 0 59-16 16-42 16-59 0l-54-54-53 54c-17 16-43 16-59 0-17-16-17-43 0-59l53-54-53-54c-17-16-17-42 0-59z m362-137h-401c-10 0-20 4-28 11l-222 202 224 278c8 6 17 9 26 9h401v-500z m6 583h-407c-31 0-61-11-84-32-2-2-3-3-4-5l-251-311c-14-18-12-43 4-57l251-229c23-21 53-32 84-32h407c43 0 78 34 78 75v516c0 41-35 75-78 75z" horiz-adv-x="1000" />

<glyph glyph-name="bar-chart" unicode="&#xe81c;" d="M500 683c-23 0-42-18-42-41v-625c0-23 19-42 42-42 23 0 42 19 42 42v625c0 23-19 41-42 41z m292-333c-23 0-42-19-42-42v-291c0-23 19-42 42-42 23 0 41 19 41 42v291c0 23-18 42-41 42z m-625 125c0 23 18 42 41 42 23 0 42-19 42-42v-458c0-23-19-42-42-42-23 0-41 19-41 42v458z" horiz-adv-x="1000" />

<glyph glyph-name="bar-chart-2" unicode="&#xe81d;" d="M792 683c-23 0-42-18-42-41v-625c0-23 19-42 42-42 23 0 41 19 41 42v625c0 23-18 41-41 41z m-292-166c-23 0-42-19-42-42v-458c0-23 19-42 42-42 23 0 42 19 42 42v458c0 23-19 42-42 42z m-333-209c0 23 18 42 41 42 23 0 42-19 42-42v-291c0-23-19-42-42-42-23 0-41 19-41 42v291z" horiz-adv-x="1000" />

<glyph glyph-name="battery" unicode="&#xe81e;" d="M660 183c2 1 7 8 7 18v298c0 11-6 17-8 18l-485 0c-2-1-7-7-7-18v-298c0-11 5-17 7-18l486 0z m-486 417h486c50 0 90-45 90-101v-298c0-56-40-101-90-101h-486c-50 0-91 45-91 101v298c0 56 41 101 91 101z m659-167c0 23 19 42 42 42 23 0 42-19 42-42v-166c0-23-19-42-42-42-23 0-42 19-42 42v166z" horiz-adv-x="1000" />

<glyph glyph-name="batttery-charging" unicode="&#xe81f;" d="M354 22c7-4 14-5 21-5 14 0 29 7 36 21l167 291c7 13 7 29 0 42-8 13-21 21-36 21h-178l131 229c11 20 4 45-16 57-20 11-45 4-57-16l-166-291c-8-13-8-29 0-42 7-13 21-21 36-21h178l-131-229c-12-20-5-45 15-57z m177 578h129c50 0 90-45 90-101v-298c0-56-40-101-90-101h-165l47 83h118c2 1 7 8 7 18v298c0 11-6 17-8 18h-176l48 83z m302-167c0 23 19 42 42 42 23 0 42-19 42-42v-166c0-23-19-42-42-42-23 0-42 19-42 42v166z m-666-232v298c0 11 5 17 7 18l117 0 48 83h-165c-50 0-91-45-91-101v-298c0-56 41-101 91-101h129l47 83h-176c-2 1-7 7-7 18z" horiz-adv-x="1000" />

<glyph glyph-name="behance" unicode="&#xe820;" d="M552 446h125v21h-125v-21z m106-108h-86v0c0 26 17 46 43 46 26 0 43-20 43-46v0z m-43 83c-57 0-95-35-95-94v-18c0-62 38-96 97-96 57 0 85 32 90 64h-49c-4-16-19-26-41-26-27 0-45 19-45 50v5h137v20c0 58-36 95-94 95z m-231-164h-40v80h51c32 0 49-15 49-41 0-26-17-39-60-39z m-40 190h48c25 0 40-13 40-35 0-24-16-37-52-37h-36v72z m94-88v2c27 7 47 27 47 60 0 41-32 66-81 66h-113v-270h113c55 0 95 28 95 76 0 41-28 63-61 66z m62-342c-184 0-333 149-333 333 0 184 149 333 333 333 184 0 333-149 333-333 0-184-149-333-333-333z m0 750c-230 0-417-187-417-417 0-230 187-417 417-417 230 0 417 187 417 417 0 230-187 417-417 417z" horiz-adv-x="1000" />

<glyph glyph-name="bell" unicode="&#xe821;" d="M230 183l49 50c16 15 24 36 24 59v194c0 57 25 111 68 149 43 38 98 54 156 47 97-13 170-101 170-204v-186c0-23 8-44 24-59l49-50h-540z m353-97c0-38-38-69-83-69-45 0-83 31-83 69v14h166v-14z m272 130l-75 76v186c0 145-104 268-242 286-81 11-161-14-222-67-61-53-96-130-96-211l0-194-75-76c-20-19-25-48-15-74 11-25 36-42 63-42h140v-14c0-84 75-153 167-153 92 0 167 69 167 153v14h140c27 0 52 17 63 42 10 26 5 55-15 74z" horiz-adv-x="1000" />

<glyph glyph-name="bell-off" unicode="&#xe822;" d="M371 635c43 38 98 54 156 47 97-13 170-101 170-204v-186c0-9 1-17 4-25l150-150c8 7 15 15 19 25 10 26 5 55-15 74l-75 76v186c0 145-104 268-242 286-81 11-161-14-222-67-8-7-16-14-23-22l60-60c1 2 2 3 4 5l0 0c4 5 9 10 14 15z m129-618c-45 0-83 31-83 69v14h166v-14c0-38-38-69-83-69z m85 131l-36 35h-319l49 50c16 15 24 36 24 59v137l-82 82c0-8-1-16-1-25l0-194-75-76c-20-19-25-48-15-74 11-25 36-42 63-42h140v-14c0-84 75-153 167-153 85 0 155 59 165 135l-33 32-47 48z m224-48l54-54c16-16 16-42 0-59-8-8-19-12-30-12-10 0-21 4-29 12l-113 113-24 24-56 57-3 2-304 305-73 73-94 93c-16 16-16 43 0 59 17 16 43 16 59 0l72-72 61-61 397-397 83-83z" horiz-adv-x="1000" />

<glyph glyph-name="bluetooth" unicode="&#xe823;" d="M542 90v169l103-99-103-70z m0 520l104-72-104-98v170z m26-260l167 158c11 10 16 23 15 38-1 14-9 27-20 35l-195 135c-15 11-35 12-51 3-16-8-26-24-26-42v-258l-133 165c-14 18-40 21-58 7-18-15-21-41-7-59l145-180-146-184c-14-18-11-45 7-59 8-6 17-9 26-9 12 0 24 5 32 16l134 169v-262c0-18 10-34 26-42 7-4 15-6 23-6 10 0 19 3 28 9l193 132c12 9 19 21 20 36 2 14-4 28-14 38l-166 160z" horiz-adv-x="1000" />

<glyph glyph-name="book" unicode="&#xe824;" d="M292 58c-23 0-42 19-42 42 0 23 19 42 42 42h458v-84h-458z m0 584h458v-417h-458c-15 0-29-3-42-8v383c0 23 19 42 42 42z m500 83h-500c-69 0-125-56-125-125v-500c0-69 56-125 125-125h458 42c23 0 41 19 41 42v41 84 541c0 23-18 42-41 42z" horiz-adv-x="1000" />

<glyph glyph-name="bookmark" unicode="&#xe825;" d="M493 204c7 0 14-2 20-5l195-111v540c0 8-5 14-8 14h-400c-3 0-8-6-8-14v-538l179 108c7 4 14 6 22 6z m-243-229c-7 0-14 2-20 5-14 8-22 22-22 37v611c0 53 42 97 92 97h400c51 0 92-44 92-97v-611c0-15-8-29-21-36-13-8-29-8-41-1l-237 134-222-133c-6-4-14-6-21-6z" horiz-adv-x="1000" />

<glyph glyph-name="book-open" unicode="&#xe826;" d="M792 167l-250-57v423l250 57v-423z m-584 423l250-57v-423l-250 57v423z m651 84c-9 8-22 11-35 8l-324-72-324 72c-13 3-25 0-35-8-10-8-16-20-16-32v-509c0-19 14-36 33-40l333-75c3-1 6-1 9-1 3 0 6 0 9 1l334 75c19 4 32 21 32 40v509c0 12-6 24-16 32z" horiz-adv-x="1000" />

<glyph glyph-name="briefcase" unicode="&#xe827;" d="M833 100c0-23-18-42-41-42h-84v417h84c23 0 41-19 41-42v-333z m-666 0v333c0 23 18 42 41 42h84v-417h-84c-23 0-41 19-41 42z m250 521c0 11 9 21 21 21h125c11 0 20-10 20-21v-63h-166v63z m-42-563h250v417h-250v-417z m417 500h-125v63c0 57-47 104-104 104h-125c-58 0-105-47-105-104v-63h-125c-69 0-125-56-125-125v-333c0-69 56-125 125-125h584c69 0 125 56 125 125v333c0 69-56 125-125 125z" horiz-adv-x="1000" />

<glyph glyph-name="browser" unicode="&#xe828;" d="M292 558c0 23 18 42 41 42 23 0 42-19 42-42 0-23-19-41-42-41-23 0-41 18-41 41z m166 0c0 23 19 42 42 42 23 0 42-19 42-42 0-23-19-41-42-41-23 0-42 18-42 41z m-250-83v125c0 23 19 42 42 42h500c23 0 42-19 42-42v-125h-584z m584-375c0-23-19-42-42-42h-500c-23 0-42 19-42 42v292h584v-292z m-42 625h-500c-69 0-125-56-125-125v-125-83-292c0-69 56-125 125-125h500c69 0 125 56 125 125v292 83 125c0 69-56 125-125 125z" horiz-adv-x="1000" />

<glyph glyph-name="brush" unicode="&#xe829;" d="M740 542l-244-244c-6 9-14 18-22 26-8 8-17 16-26 22l244 244c13 13 35 13 48 0 7-6 10-15 10-24 0-9-3-18-10-24z m-396-439l-93-2 1 93c1 53 45 96 98 97 0 0 1 0 2 0 24 0 46-9 63-26 17-17 27-40 26-65-1-53-44-97-97-97z m489 463c1 31-11 61-34 83-44 44-122 44-166 0l-275-275c-3 0-6 0-10 1-97-2-177-83-179-180l-2-136c-1-11 4-22 12-30 8-8 18-12 29-12h1l136 2c97 2 178 82 180 180 0 3-1 6-1 9l275 275c23 23 35 52 34 83z" horiz-adv-x="1000" />

<glyph glyph-name="bulb" unicode="&#xe82a;" d="M542 642c0-23-19-42-42-42-23 0-42 19-42 42v83c0 23 19 42 42 42 23 0 42-19 42-42v-83z m0-436c0 15 8 29 21 36 38 22 62 64 62 108 0 69-56 125-125 125-69 0-125-56-125-125 0-44 24-86 63-108 12-7 20-21 20-36v-189h84v189z m-250 144c0 115 93 208 208 208 115 0 208-93 208-208 0-66-31-128-83-166v-167c0-46-37-84-83-84h-84c-46 0-83 38-83 84v167c-52 38-83 100-83 166z m583 42h-83c-23 0-42-19-42-42 0-23 19-42 42-42h83c23 0 42 19 42 42 0 23-19 42-42 42z m-750 0h83c23 0 42-19 42-42 0-23-19-42-42-42h-83c-23 0-42 19-42 42 0 23 19 42 42 42z m194 191l-60 58c-16 16-43 15-59-2-16-16-15-42 1-58l60-58c8-8 19-12 29-12 11 0 22 4 30 13 16 16 16 43-1 59z m422 57c16 16 43 16 59-1 16-16 15-42-1-58l-60-58c-8-8-19-12-29-12-11 0-22 4-30 13-16 16-16 43 1 59l60 57z" horiz-adv-x="1000" />

<glyph glyph-name="calendar" unicode="&#xe82b;" d="M292 183c0 23 18 42 41 42 23 0 42-19 42-42 0-23-19-41-42-41-23 0-41 18-41 41z m208 42h167c23 0 41-19 41-42 0-23-18-41-41-41h-167c-23 0-42 18-42 41 0 23 19 42 42 42z m250-208h-500c-23 0-42 18-42 41v250h584v-250c0-23-19-41-42-41z m-500 583h42v-42c0-23 18-41 41-41 23 0 42 18 42 41v42h250v-42c0-23 19-41 42-41 23 0 41 18 41 41v42h42c23 0 42-19 42-42v-166h-584v166c0 23 19 42 42 42z m500 83h-42v42c0 23-18 42-41 42-23 0-42-19-42-42v-42h-250v42c0 23-19 42-42 42-23 0-41-19-41-42v-42h-42c-69 0-125-56-125-125v-500c0-69 56-125 125-125h500c69 0 125 56 125 125v500c0 69-56 125-125 125z" horiz-adv-x="1000" />

<glyph glyph-name="camera" unicode="&#xe82c;" d="M500 204c-34 0-62 28-62 63 0 34 28 62 62 62 35 0 63-28 63-62 0-35-28-63-63-63z m0 209c-80 0-146-66-146-146 0-81 66-146 146-146 80 0 146 65 146 146 0 80-66 146-146 146z m333-313c0-23-18-42-41-42h-584c-23 0-41 19-41 42v333c0 23 18 42 41 42h584c23 0 41-19 41-42v-333z m-416 521c0 11 9 21 21 21h125c11 0 20-10 20-21v-63h-166v63z m375-63h-125v63c0 57-47 104-104 104h-125c-58 0-105-47-105-104v-63h-125c-69 0-125-56-125-125v-333c0-69 56-125 125-125h584c69 0 125 56 125 125v333c0 69-56 125-125 125z" horiz-adv-x="1000" />

<glyph glyph-name="car" unicode="&#xe82d;" d="M792 100c0-23-19-42-42-42-23 0-42 19-42 42 0 23 19 42 42 42 23 0 42-19 42-42z m-292 125h-333l0 417h458l-1-417h-124z m-208-125c0-23-19-42-42-42-23 0-42 19-42 42 0 23 19 42 42 42 23 0 42-19 42-42z m541 230v-105h-125v205l125-100z m68 53l-193 154v105c0 46-33 83-75 83h-474c-42 0-76-37-76-83v-417c0-36 22-67 51-78-6-15-9-30-9-47 0-69 56-125 125-125 69 0 125 56 125 125 0 15-3 29-8 42h133 133c-5-13-8-27-8-42 0-69 56-125 125-125 69 0 125 56 125 125 0 15-3 29-8 42h8c23 0 42 18 42 41v167c0 13-6 25-16 33z" horiz-adv-x="1000" />

<glyph glyph-name="cast" unicode="&#xe82e;" d="M233 725h534c59 0 108-52 108-116v-518c0-64-49-116-108-116h-59c-23 0-41 19-41 42 0 23 18 41 41 41h59c13 0 25 15 25 33v518c0 18-12 33-25 33h-534c-13 0-25-15-25-33v-51c0-23-18-41-41-41-23 0-42 18-42 41v51c0 64 49 116 108 116z m-108-507c-3 23 13 44 36 47 59 8 117-11 159-53 56-56 71-142 37-213-7-15-22-24-37-24-6 0-12 1-18 4-21 10-30 34-20 55 18 40 10 88-21 119-23 23-56 34-89 29-23-3-43 13-47 36z m36 212c-23-3-39-24-36-47 4-23 25-39 47-35 79 10 157-15 213-71 65-65 89-160 63-249-6-22 7-45 29-51 4-2 8-2 11-2 18 0 35 12 40 30 35 117 2 244-84 330-75 75-178 110-283 95z m-36-372c0 23 19 42 42 42 23 0 41-19 41-42 0-23-18-41-41-41-23 0-42 18-42 41z" horiz-adv-x="1000" />

<glyph glyph-name="checkmark" unicode="&#xe82f;" d="M411 100c-11 0-22 5-30 13l-203 216c-16 17-15 43 2 59 17 16 43 15 59-2l172-183 350 383c16 18 42 19 59 3 17-15 18-42 2-59l-380-416c-8-9-19-14-31-14h0z" horiz-adv-x="1000" />

<glyph glyph-name="checkmark-circle" unicode="&#xe830;" d="M613 500l-158-207-68 87c-14 18-40 21-58 7-19-14-22-40-8-58l102-130c8-10 20-16 33-16h0c13 0 25 7 33 17l190 250c14 18 10 44-8 58-18 14-44 11-58-8z m-113-483c-184 0-333 149-333 333 0 184 149 333 333 333 184 0 333-149 333-333 0-184-149-333-333-333z m0 750c-230 0-417-187-417-417 0-230 187-417 417-417 230 0 417 187 417 417 0 230-187 417-417 417z" horiz-adv-x="1000" />

<glyph glyph-name="checkmark-circle-2" unicode="&#xe831;" d="M875 393h0c23 0 42-19 42-42 0-111-43-216-121-295-79-79-183-122-295-123h-1c-111 0-215 43-294 122-79 78-122 183-123 294 0 111 43 216 122 295 78 79 183 122 294 123 33-1 67-4 99-12 22-5 36-28 31-50-6-22-28-36-50-31-26 6-54 9-80 9-89 0-173-35-235-98-63-63-98-147-97-236 0-89 35-173 98-235 63-63 146-97 235-97h1c89 0 173 35 235 98 63 63 98 147 97 236 0 23 19 42 42 42z m-529-13c16 16 42 16 59 0l93-94 262 300c16 17 42 19 59 4 17-15 19-42 4-59l-292-333c-7-9-18-14-30-15h-1c-11 0-22 5-29 13l-125 125c-17 16-17 42 0 59z" horiz-adv-x="1000" />

<glyph glyph-name="checkmark-square" unicode="&#xe832;" d="M613 500l-158-207-68 87c-14 18-40 21-58 7-19-14-22-40-8-58l102-130c8-10 20-16 33-16h0c13 0 25 7 33 17l190 250c14 18 10 44-8 58-18 14-44 11-58-8z m179-400c0-23-19-42-42-42h-500c-23 0-42 19-42 42v500c0 23 19 42 42 42h500c23 0 42-19 42-42v-500z m-42 625h-500c-69 0-125-56-125-125v-500c0-69 56-125 125-125h500c69 0 125 56 125 125v500c0 69-56 125-125 125z" horiz-adv-x="1000" />

<glyph glyph-name="checkmark-square-2" unicode="&#xe833;" d="M792 315c0 23 18 42 41 42 23 0 42-19 42-42v-232c0-59-49-108-108-108h-534c-59 0-108 49-108 108v534c0 59 49 108 108 108h399c23 0 42-19 42-42 0-23-19-41-42-41h-399c-13 0-25-12-25-25v-534c0-13 12-25 25-25h534c14 0 25 12 25 25v232z m-404 79c17 16 43 15 59-1l63-66 252 260c16 17 42 17 59 1 16-16 17-42 1-59l-283-291c-8-8-18-13-30-13h0c-11 0-22 5-30 13l-92 97c-16 17-16 43 1 59z" horiz-adv-x="1000" />

<glyph glyph-name="chevron-down" unicode="&#xe834;" d="M500 204c-11 0-21 4-29 12l-167 167c-16 16-16 43 0 59 16 16 43 16 59 0l138-138 137 133c16 16 43 15 59-1 16-17 15-43-1-59l-167-161c-8-8-19-12-29-12z" horiz-adv-x="1000" />

<glyph glyph-name="chevron-left" unicode="&#xe835;" d="M557 142c-11 0-22 4-30 12l-161 167c-16 16-16 42 0 59l167 166c16 16 43 16 59 0 16-16 16-42 0-59l-138-137 133-138c16-16 15-43-1-59-8-7-19-11-29-11z" horiz-adv-x="1000" />

<glyph glyph-name="chevron-right" unicode="&#xe836;" d="M438 142c-11 0-22 4-30 12-16 16-16 43 0 59l138 138-133 137c-16 16-15 43 1 59 17 16 43 15 59-1l161-167c16-16 16-42 0-58l-167-167c-8-8-19-12-29-12z" horiz-adv-x="1000" />

<glyph glyph-name="chevron-up" unicode="&#xe837;" d="M667 246c-11 0-22 4-30 12l-137 138-138-133c-16-16-43-15-59 1-16 17-15 43 1 59l167 161c16 16 42 16 59 0l166-167c16-16 16-43 0-59-8-8-19-12-29-12z" horiz-adv-x="1000" />

<glyph glyph-name="clipboard" unicode="&#xe838;" d="M792 58c0-23-19-41-42-41h-500c-23 0-42 18-42 41v459c0 23 19 41 42 41v-41c0-46 37-84 83-84h334c46 0 83 38 83 84v41c23 0 42-18 42-41v-459z m-459 625l334 0v-41-125h-334v125 41z m417-41v41c0 46-37 84-83 84h-334c-46 0-83-38-83-84v-41c-69 0-125-56-125-125v-459c0-69 56-125 125-125h500c69 0 125 56 125 125v459c0 69-56 125-125 125z" horiz-adv-x="1000" />

<glyph glyph-name="clock" unicode="&#xe839;" d="M667 392h-125v125c0 23-19 41-42 41-23 0-42-18-42-41v-167c0-23 19-42 42-42h167c23 0 41 19 41 42 0 23-18 42-41 42z m-167-375c-184 0-333 149-333 333 0 184 149 333 333 333 184 0 333-149 333-333 0-184-149-333-333-333z m0 750c-230 0-417-187-417-417 0-230 187-417 417-417 230 0 417 187 417 417 0 230-187 417-417 417z" horiz-adv-x="1000" />

<glyph glyph-name="close" unicode="&#xe83a;" d="M559 350l179 179c16 16 16 43 0 59-16 16-43 16-59 0l-179-179-179 179c-16 16-42 16-59 0-16-16-16-43 0-59l179-179-179-179c-16-16-16-42 0-59 8-8 19-12 30-12 10 0 21 4 29 12l179 179 179-179c8-8 19-12 29-12 11 0 22 4 30 12 16 17 16 43 0 59l-179 179z" horiz-adv-x="1000" />

<glyph glyph-name="close-circle" unicode="&#xe83b;" d="M613 463c-16 16-43 16-59 0l-54-54-54 54c-16 16-42 16-59 0-16-16-16-43 0-59l54-54-54-54c-16-16-16-42 0-59 8-8 19-12 30-12 10 0 21 4 29 12l54 54 54-54c8-8 19-12 29-12 11 0 22 4 30 12 16 17 16 43 0 59l-54 54 54 54c16 16 16 43 0 59z m-113-446c-184 0-333 149-333 333 0 184 149 333 333 333 184 0 333-149 333-333 0-184-149-333-333-333z m0 750c-230 0-417-187-417-417 0-230 187-417 417-417 230 0 417 187 417 417 0 230-187 417-417 417z" horiz-adv-x="1000" />

<glyph glyph-name="close-circle-1" unicode="&#xe83c;" d="M613 463c-16 16-43 16-59 0l-54-54-54 54c-16 16-42 16-59 0-16-16-16-43 0-59l54-54-54-54c-16-16-16-42 0-59 8-8 19-12 30-12 10 0 21 4 29 12l54 54 54-54c8-8 19-12 29-12 11 0 22 4 30 12 16 17 16 43 0 59l-54 54 54 54c16 16 16 43 0 59z m179-363c0-23-19-42-42-42h-500c-23 0-42 19-42 42v500c0 23 19 42 42 42h500c23 0 42-19 42-42v-500z m-42 625h-500c-69 0-125-56-125-125v-500c0-69 56-125 125-125h500c69 0 125 56 125 125v500c0 69-56 125-125 125z" horiz-adv-x="1000" />

<glyph glyph-name="cloud-download" unicode="&#xe83d;" d="M500 725c108 0 202-69 237-168 101-14 180-102 180-207 0-51-19-100-52-138-9-9-20-14-32-14-9 0-19 4-27 11-17 15-19 41-4 58 20 23 31 53 31 83 0 69-56 125-125 125h-4c-20 0-37 14-41 34-15 77-84 133-163 133-79 0-148-56-163-133-4-20-21-34-41-34h-4c-69 0-125-56-125-125 0-30 11-60 31-83 15-17 14-43-4-58-17-16-43-14-59 3-33 38-52 87-52 138 0 105 79 193 181 207 34 99 129 168 236 168z m42-610l54 52c17 16 43 16 59-1 16-16 16-43-1-59l-125-120c-8-8-19-12-29-12-11 0-21 4-29 12l-125 125c-17 17-17 43 0 59 16 16 42 16 59 0l53-54v233c0 23 19 42 42 42 23 0 42-19 42-42v-235z" horiz-adv-x="1000" />

<glyph glyph-name="cloud-upload" unicode="&#xe83e;" d="M500 725c108 0 202-69 237-168 101-14 180-102 180-207 0-51-19-100-52-138-9-9-20-14-32-14-9 0-19 4-27 11-17 15-19 41-4 58 20 23 31 53 31 83 0 69-56 125-125 125h-4c-20 0-37 14-41 34-15 77-84 133-163 133-79 0-148-56-163-133-4-20-21-34-41-34h-4c-69 0-125-56-125-125 0-30 11-60 31-83 15-17 14-43-4-58-17-16-43-14-59 3-33 38-52 87-52 138 0 105 79 193 181 207 34 99 129 168 236 168z m-29-345c17 16 42 16 59 0l125-125c16-17 16-43 0-59-9-9-19-13-30-13-11 0-21 4-29 13l-54 53v-232c0-23-19-42-42-42-23 0-42 19-42 42v235l-54-53c-17-16-43-15-59 1-16 17-15 43 1 59l125 121z" horiz-adv-x="1000" />

<glyph glyph-name="code" unicode="&#xe83f;" d="M706 626l202-250c12-15 12-37-1-53l-208-250c-9-10-20-15-32-15-10 0-19 4-27 10-18 15-20 41-5 59l186 224-180 223c-14 18-11 44 7 59 18 14 44 11 58-7z m-405 1c15 17 41 20 59 5 18-15 20-41 5-59l-186-223 180-224c14-18 11-44-7-58-7-7-17-10-26-10-12 0-24 6-32 16l-201 250c-13 15-13 37 0 53l208 250z" horiz-adv-x="1000" />

<glyph glyph-name="code-download" unicode="&#xe840;" d="M908 376l-202 250c-14 18-40 21-58 7-18-15-21-41-7-59l180-223-186-224c-15-18-13-44 5-59 8-6 17-10 27-10 12 0 23 5 32 15l208 250c13 16 13 38 1 53z m-729-26l186 223c15 18 13 44-5 59-18 15-44 12-59-5l-208-250c-13-16-13-38 0-53l201-250c8-10 20-16 32-16 9 0 19 3 26 10 18 14 21 40 7 58l-180 224z m417 26c17 16 43 15 59-1 16-17 16-43-1-59l-125-121c-8-8-19-12-29-12-11 0-21 4-29 13l-125 125c-17 16-17 42 0 58 16 17 42 17 58 0l54-53v191c0 23 19 41 42 41 23 0 42-18 42-41v-194l54 53z" horiz-adv-x="1000" />

<glyph glyph-name="collapse" unicode="&#xe841;" d="M684 475l108 0c23 0 41-19 41-42 0-23-18-41-41-41h0l-208 0c-23 0-41 18-41 41l-1 209c0 23 18 41 41 41h0c23 0 42-18 42-41l1-107 136 136c17 16 43 16 59 0 16-16 16-42 0-59l-137-137z m-475-167l208-1c23 0 41-18 41-41l0-208c0-23-18-41-41-41-23 0-42 18-42 41l0 108-137-137c-8-8-19-12-30-12-10 0-21 4-29 12-16 16-16 43 0 59l137 136-108 1c-23 0-41 19-41 42 0 23 18 41 41 41h1z" horiz-adv-x="1000" />

<glyph glyph-name="color-palette" unicode="&#xe842;" d="M438 579c0 35 28 63 62 63 35 0 63-28 63-63 0-34-28-62-63-62-34 0-62 28-62 62z m175-114c-18 29-7 68 22 85 30 17 69 7 86-23 17-30 7-68-23-85-30-18-68-7-85 23z m-248 85c-30 17-68 7-86-23-17-30-7-68 23-85 30-18 68-7 86 23 17 29 7 68-23 85z m-125-256c-19 29-12 68 17 87 28 19 67 12 87-17 19-28 11-67-17-87-29-19-68-11-87 17z m422-69h-69c-57 0-104-47-104-104 0-25 9-50 26-69 5-6 7-13 5-20-2-9-12-14-25-15-95 1-185 43-247 115-63 73-91 167-78 264 21 160 165 286 327 287h3c98 0 191-37 254-103 54-55 82-126 79-199-3-83-83-156-171-156z m152 413c-80 83-197 129-318 129h0c-206-2-382-157-409-360-16-119 20-239 98-329 77-90 190-143 309-145h2c50 0 94 33 105 79 8 34 0 69-23 95-4 4-6 9-6 14 0 11 10 21 21 21h69c133 0 249 108 254 236 4 96-32 188-102 260z" horiz-adv-x="1000" />

<glyph glyph-name="color-picker" unicode="&#xe843;" d="M669 407l-112 112 79 80 113-113-80-79z m-291-291l-124-12 11 124 233 232 112-112-232-232z m430 428l-114 114c-32 32-82 34-113 3l-83-83-52 52c-16 16-42 16-59 0-16-17-16-43 0-59l52-52-233-233c-13-13-22-31-23-50l-16-174c-1-12 3-24 12-33 8-8 18-12 29-12 2 0 3 0 4 0l174 16c19 1 37 10 50 23l233 233 52-52c8-8 18-12 29-12 11 0 21 4 29 12 17 17 17 43 0 59l-51 52 83 83c31 31 29 81-3 113z" horiz-adv-x="1000" />

<glyph glyph-name="compass" unicode="&#xe844;" d="M450 300l30 72 70 29-30-73-70-28z m204 203c-12 13-30 17-46 11l-176-71c-10-4-19-13-23-23l-72-177c-7-15-3-32 7-43 0-1 1-1 1-2 1 0 1-1 2-2 8-8 19-13 30-13 5 0 10 1 15 3l176 71c10 5 19 13 23 23l73 178c6 16 2 34-10 45z m-154-486c-184 0-333 149-333 333 0 184 149 333 333 333 184 0 333-149 333-333 0-184-149-333-333-333z m0 750c-230 0-417-187-417-417 0-230 187-417 417-417 230 0 417 187 417 417 0 230-187 417-417 417z" horiz-adv-x="1000" />

<glyph glyph-name="copy" unicode="&#xe845;" d="M375 308v42c0 69 56 125 125 125h42v139c0 15-13 28-28 28h-278c-15 0-28-13-28-28v-278c0-15 13-28 28-28h139z m0-83h-139c-61 0-111 50-111 111v278c0 61 50 111 111 111h278c61 0 111-50 111-111v-139h125c69 0 125-56 125-125v-250c0-69-56-125-125-125h-250c-69 0-125 56-125 125v125z m83 125c0 23 19 42 42 42h250c23 0 42-19 42-42v-250c0-23-19-42-42-42h-250c-23 0-42 19-42 42v250z" horiz-adv-x="1000" />

<glyph glyph-name="corner-down-left" unicode="&#xe846;" d="M832 600c0 23-19 42-42 42h0c-23 0-41-19-41-42l1-208c0-12-5-22-12-30-8-8-19-12-30-12l-371-2 111 141c15 18 12 45-6 59-18 14-44 11-59-7l-166-209c-12-15-12-37 1-52l167-208c8-10 20-15 33-15 9 0 18 3 26 9 18 15 20 41 6 59l-113 140 372 1c33 1 64 14 88 37 23 24 36 56 36 89l-1 208z" horiz-adv-x="1000" />

<glyph glyph-name="corner-down-right" unicode="&#xe847;" d="M824 334l-166 209c-15 18-41 21-59 6-18-14-21-40-7-58l113-141h-372c-23 0-41 19-41 42v208c0 23-19 42-42 42-23 0-42-19-42-42v-208c0-69 56-125 125-125h372l-113-141c-14-18-11-44 7-58 8-7 17-10 26-10 12 0 24 6 33 16l166 208c12 16 12 37 0 52z" horiz-adv-x="1000" />

<glyph glyph-name="corner-left-down" unicode="&#xe848;" d="M750 642h-208c-69 0-125-56-125-125v-372l-141 113c-18 14-44 11-58-7-15-18-12-44 6-58l208-167c8-6 17-9 26-9 10 0 19 3 26 9l209 167c18 14 21 40 6 58-14 18-40 21-58 7l-141-113v372c0 23 19 41 42 41h208c23 0 42 19 42 42 0 23-19 42-42 42z" horiz-adv-x="1000" />

<glyph glyph-name="corner-left-up" unicode="&#xe849;" d="M750 142h-208c-23 0-42 18-42 41v372l141-112c7-7 17-10 26-10 12 0 24 6 32 16 15 18 12 44-6 59l-209 166c-15 12-36 12-52 0l-208-166c-18-15-21-41-6-59 14-18 40-21 58-6l141 112v-372c0-69 56-125 125-125h208c23 0 42 19 42 42 0 23-19 42-42 42z" horiz-adv-x="1000" />

<glyph glyph-name="corner-right-down" unicode="&#xe84a;" d="M783 251c-15 18-41 21-59 7l-141-113v372c0 69-56 125-125 125h-208c-23 0-42-19-42-42 0-23 19-42 42-42h208c23 0 42-18 42-41v-372l-141 113c-18 14-44 11-58-7-15-18-12-44 6-58l209-167c7-6 16-9 26-9 9 0 18 3 26 9l208 167c18 14 21 40 7 58z" horiz-adv-x="1000" />

<glyph glyph-name="corner-right-up" unicode="&#xe84b;" d="M776 508l-208 166c-15 12-37 12-52 0l-209-166c-18-15-21-41-6-59 14-18 40-21 58-7l141 113v-372c0-23-19-41-42-41h-208c-23 0-42-19-42-42 0-23 19-42 42-42h208c69 0 125 56 125 125v372l141-113c8-6 17-9 26-9 12 0 24 6 33 16 14 18 11 44-7 59z" horiz-adv-x="1000" />

<glyph glyph-name="corner-up-left" unicode="&#xe84c;" d="M667 433h-372l113 141c14 18 11 44-7 59-18 14-44 11-58-7l-167-208c-12-15-12-37 0-52l167-209c8-10 20-15 32-15 9 0 18 3 26 9 18 14 21 40 7 58l-113 141h372c23 0 41-19 41-42v-208c0-23 19-42 42-42 23 0 42 19 42 42v208c0 69-56 125-125 125z" horiz-adv-x="1000" />

<glyph glyph-name="corner-up-right" unicode="&#xe84d;" d="M824 418l-166 208c-15 18-41 21-59 7-18-15-21-41-6-59l112-141h-372c-69 0-125-56-125-125v-208c0-23 19-42 42-42 23 0 42 19 42 42v208c0 23 18 42 41 42h372l-112-141c-15-18-12-44 6-58 8-6 17-9 26-9 12 0 24 5 33 15l166 209c12 15 12 37 0 52z" horiz-adv-x="1000" />

<glyph glyph-name="credit-card" unicode="&#xe84e;" d="M458 225h-166c-23 0-42 19-42 42 0 23 19 41 42 41h166c23 0 42-18 42-41 0-23-19-42-42-42z m250 0h-83c-23 0-42 19-42 42 0 23 19 41 42 41h83c23 0 42-18 42-41 0-23-19-42-42-42z m125-42c0-23-18-41-41-41h-584c-23 0-41 18-41 41v209h666v-209z m-666 334c0 23 18 41 41 41h584c23 0 41-18 41-41v-42h-666v42z m625 125h-584c-69 0-125-56-125-125v-334c0-69 56-125 125-125h584c69 0 125 56 125 125v334c0 69-56 125-125 125z" horiz-adv-x="1000" />

<glyph glyph-name="crop" unicode="&#xe84f;" d="M357 183c-13 0-24 11-24 24v310h311c12 0 23-11 23-23v-311h-310z m518 0h-125v311c0 58-48 106-106 106h-311v125c0 23-18 42-41 42-23 0-42-19-42-42v-125h-125c-23 0-42-19-42-42 0-23 19-41 42-41h125v-310c0-59 48-107 107-107h310v-125c0-23 18-42 41-42 23 0 42 19 42 42v125h125c23 0 42 19 42 42 0 23-19 41-42 41z" horiz-adv-x="1000" />

<glyph glyph-name="cube" unicode="&#xe850;" d="M779 185l-237-110v280l250 116v-268c0-8-5-14-13-18z m-558 0c-8 4-13 10-13 18v268l250-116v-280l-237 110z m267 454c4 2 8 3 12 3 4 0 8-1 12-3l222-103-234-109-234 109 222 103z m373-91c0 0 0 0-1 1 0 0 0 0 0 1-2 3-4 5-7 8-1 2-2 3-3 5-10 11-22 21-36 28l-267 124c0 0 0 0 0 0-30 14-64 14-94 0l-267-124c-14-7-26-17-35-28-2-2-3-3-4-5-3-3-5-5-7-8 0-1 0-1 0-1-1-1-1-1-1-1-8-16-14-33-14-50v-295c0-39 24-76 61-94l266-124c16-7 32-10 48-10 16 0 32 3 47 10l267 124c37 17 61 54 61 94v295c0 18-5 34-14 50z" horiz-adv-x="1000" />

<glyph glyph-name="diagonal-arrow-left-down" unicode="&#xe851;" d="M738 588c-16 16-43 16-59 0l-346-346v233c0 23-18 42-41 42-23 0-42-19-42-42v-333c0-23 19-42 42-42h333c23 0 42 19 42 42 0 23-19 41-42 41h-233l346 346c16 16 16 43 0 59z" horiz-adv-x="1000" />

<glyph glyph-name="diagonal-arrow-left-up" unicode="&#xe852;" d="M738 171l-346 346 233 0c23 0 42 18 42 41 0 23-19 42-42 42h0l-331 0c-23 0-42-19-42-42l-2-333c0-23 18-41 41-42h1c23 0 41 19 41 42l2 231 344-344c8-8 19-12 29-12 11 0 22 4 30 12 16 17 16 43 0 59z" horiz-adv-x="1000" />

<glyph glyph-name="diagonal-arrow-right-down" unicode="&#xe853;" d="M708 517c-23 0-41-19-41-42v-233l-346 346c-16 16-42 16-59 0-16-16-16-43 0-59l346-346h-233c-23 0-42-18-42-41 0-23 19-42 42-42h333c23 0 42 19 42 42v333c0 23-19 42-42 42z" horiz-adv-x="1000" />

<glyph glyph-name="diagonal-arrow-right-up" unicode="&#xe854;" d="M750 556c0 23-19 42-42 42l-333 2h0c-23 0-41-18-42-41 0-23 19-42 42-42l231-2-344-344c-16-16-16-42 0-59 8-8 19-12 30-12 10 0 21 4 29 12l346 346 0-233c0-23 18-42 41-42h0c23 0 42 19 42 42l0 331z" horiz-adv-x="1000" />

<glyph glyph-name="download" unicode="&#xe855;" d="M458 347c0 1 0 2 0 3v333c0 23 19 42 42 42 23 0 42-19 42-42v-333l100 75c18 14 44 10 58-8 14-19 10-45-8-59l-167-125c-7-5-16-8-25-8-8 0-17 3-24 8l-167 117c-18 13-23 39-10 58 14 19 40 23 58 10l101-71z m-208-205v-42h500v42c0 23 19 41 42 41 23 0 41-18 41-41v-84c0-23-18-41-41-41h-584c-23 0-41 18-41 41v84c0 23 18 41 41 41 23 0 42-18 42-41z" horiz-adv-x="1000" />

<glyph glyph-name="droplet" unicode="&#xe856;" d="M523 624l-163-164c-90-91-91-240-2-332 42-44 100-69 161-70h0c61 0 118 24 162 67 91 91 92 240 3 333l-161 166z m-5-649c-84 1-162 35-220 95-121 125-119 326 3 449l193 194c8 8 19 12 30 12 11 0 22-5 30-13l190-197c120-124 118-326-4-448-59-60-138-93-222-92h0z" horiz-adv-x="1000" />

<glyph glyph-name="droplet-off" unicode="&#xe857;" d="M500 624l162-165c57-58 77-140 62-215l67-67c43 114 20 248-70 340l-191 196c-8 8-19 12-30 12h0c-11 0-22-4-30-12l-106-109 59-59 77 79z m0-566h0c-61 0-118 25-162 69-78 80-88 205-29 296l-59 59c-91-124-82-301 29-414 59-60 137-93 221-93h0c70 0 136 23 191 66l-60 60c-38-27-83-43-131-43z m-304 655l667-667c16-16 16-42 0-59-8-8-19-12-30-12-10 0-21 4-29 12l-667 667c-16 16-16 43 0 59 17 16 43 16 59 0z" horiz-adv-x="1000" />

<glyph glyph-name="edit" unicode="&#xe858;" d="M667 405l-112 112 81 82 113-113-82-81z m-289-289l-124-12 11 124 234 234 113-113-234-233z m431 428l-1 0-114 114c-30 31-84 33-113 3l-375-375c-13-13-22-31-23-50l-16-174c-1-12 3-24 12-33 8-8 18-12 29-12 2 0 3 0 4 0l174 16c19 1 37 10 50 23l375 375c31 31 29 81-2 113z" horiz-adv-x="1000" />

<glyph glyph-name="edit-2" unicode="&#xe859;" d="M499 545l-234-234-11-123 124 11 234 234-113 112z m250 25l-113 112-81-81 112-113 82 82z m-537-470c-1 0-2 0-4 0-11 0-21 4-29 12-9 9-13 21-12 33l16 174c1 19 10 37 23 51l375 375c29 29 83 28 113-3l114-114h1c31-32 33-83 2-113l-375-375c-13-14-31-22-50-24l-174-16z m-4-83h584c23 0 41-19 41-42 0-23-18-42-41-42h-584c-23 0-41 19-41 42 0 23 18 42 41 42z" horiz-adv-x="1000" />

<glyph glyph-name="email" unicode="&#xe85a;" d="M792 100h-584c-23 0-41 19-41 42v406l308-231c7-6 16-9 25-9 9 0 18 3 25 9l308 231v-406c0-23-18-42-41-42z m-28 500l-264-198-264 198h528z m28 83h-584c-69 0-125-56-125-125v-416c0-69 56-125 125-125h584c69 0 125 56 125 125v416c0 69-56 125-125 125z" horiz-adv-x="1000" />

<glyph glyph-name="expand" unicode="&#xe85b;" d="M792 682c23 0 41-18 41-41l0-208c0-23-18-41-41-41h0c-23 0-42 18-42 41l0 108-137-137c-8-8-19-12-30-12-10 0-21 4-29 12-16 16-16 43 0 59l137 136-108 1c-23 0-41 19-41 42 0 23 18 41 41 41h1l208-1z m-405-386c17 16 43 16 59 0 16-16 16-42 0-59l-137-137 108 0c23 0 41-19 41-42 0-23-18-41-41-41h0l-208 0c-23 0-41 18-41 41l-1 209c0 23 18 41 41 41h0c23 0 42-18 42-41l1-107 136 136z" horiz-adv-x="1000" />

<glyph glyph-name="external-link" unicode="&#xe85c;" d="M792 100v250c0 23 18 42 41 42 23 0 42-19 42-42v-250c0-69-56-125-125-125h-500c-69 0-125 56-125 125v500c0 69 56 125 125 125h250c23 0 42-19 42-42 0-23-19-41-42-41h-250c-23 0-42-19-42-42v-500c0-23 19-42 42-42h500c23 0 42 19 42 42z m-60 541l-65 1c-24 0-42 19-42 42 0 23 19 41 42 41h0l166-1c23 0 42-18 42-41l0-166c0-23-19-42-42-42h0c-23 0-41 19-41 42l0 66-262-262c-9-9-19-13-30-13-11 0-21 4-29 13-17 16-17 42 0 59l261 261z" horiz-adv-x="1000" />

<glyph glyph-name="eye" unicode="&#xe85d;" d="M500 288c-34 0-62 28-62 62 0 35 28 63 62 63 35 0 63-28 63-63 0-34-28-62-63-62z m0 208c-80 0-146-66-146-146 0-80 66-146 146-146 80 0 146 66 146 146 0 80-66 146-146 146z m9-354c-179-4-296 149-335 208 43 67 150 204 317 208 179 5 296-149 335-208-43-67-150-204-317-208z m402 229c-26 46-173 278-422 271-231-6-365-209-400-271-7-13-7-29 0-42 26-45 168-271 412-271 3 0 7 0 10 1 231 5 365 208 400 270 8 13 8 29 0 42z" horiz-adv-x="1000" />

<glyph glyph-name="eye-off" unicode="&#xe85e;" d="M500 288c-34 0-62 28-62 62 0 1 0 1 0 2l0 0c0 0 0 1 0 1l65-65c0 0-1 0-1 0-1 0-1 0-2 0z m-304 425c-16 16-42 16-59 0-16-16-16-43 0-59l235-235c-12-21-18-44-18-69 0-80 66-146 146-146 25 0 48 6 69 18l235-235c8-8 19-12 29-12 11 0 22 4 30 12 16 17 16 43 0 59l-667 667z m313-571c-179-4-296 149-335 208 19 30 51 74 95 113l-59 59c-63-58-104-121-121-151-7-13-7-29 0-42 26-45 168-271 412-271 3 0 7 0 10 1 50 1 94 11 135 27l-66 66c-22-6-46-10-71-10z m-20 500c249 7 396-225 422-271 8-13 8-29 0-42-17-30-58-93-121-151l-59 59c44 40 76 83 95 113-39 59-156 213-335 208-25 0-49-4-71-10l-66 66c41 16 85 26 135 28z" horiz-adv-x="1000" />

<glyph glyph-name="eye-off-2" unicode="&#xe85f;" d="M742 292c71 59 121 143 133 240 3 23-14 44-36 47-23 3-44-13-47-36-18-146-144-255-292-255-148 0-274 109-292 255-3 23-24 39-46 36-23-3-39-24-37-47 13-97 62-181 133-240l-96-96c-17-17-17-43 0-59 16-17 42-17 59 0l108 108c40-20 83-33 129-38v-149c0-23 19-41 42-41 23 0 42 18 42 41v149c46 5 89 18 129 38l109-108c16-17 42-17 58 0 17 16 17 42 0 59l-96 96z" horiz-adv-x="1000" />

<glyph glyph-name="facebook" unicode="&#xe860;" d="M417 17h83v258c0 23 19 42 42 42h93l19 66h-112c-23 0-42 19-42 42v113c0 43 37 79 83 79h84v66h-84c-92 0-166-65-166-145v-113c0-23-19-42-42-42h-83v-66h83c23 0 42-19 42-42v-258z m125-84h-167c-23 0-42 19-42 42v258h-83c-23 0-42 19-42 42v150c0 23 19 42 42 42h83v71c0 126 113 229 250 229h125c23 0 42-19 42-42v-150c0-23-19-42-42-42h-125v-66h125c13 0 26-6 34-17 7-10 10-24 7-36l-42-150c-5-18-22-31-40-31h-84v-258c0-23-18-42-41-42z" horiz-adv-x="1000" />

<glyph glyph-name="file" unicode="&#xe861;" d="M727 17h-454c-13 0-23 9-23 21v625c0 11 10 20 23 20h185v-173c0-65 51-118 113-118h179v-354c0-12-10-21-23-21z m8 458h-164c-16 0-29 16-29 35v173h4l189-208z m88 28l-227 250c-8 9-19 14-31 14h-292c-59 0-106-47-106-104v-625c0-58 47-105 106-105h454c59 0 106 47 106 105v437c0 10-3 20-10 28z" horiz-adv-x="1000" />

<glyph glyph-name="file-add" unicode="&#xe862;" d="M583 308h-41v42c0 23-19 42-42 42-23 0-42-19-42-42v-42h-41c-23 0-42-18-42-41 0-23 19-42 42-42h41v-42c0-23 19-41 42-41 23 0 42 18 42 41v42h41c23 0 42 19 42 42 0 23-19 41-42 41z m144-291h-454c-13 0-23 9-23 21v625c0 11 10 20 23 20h227v-131c0-65 51-119 113-119h137v-395c0-12-10-21-23-21z m-144 626l115-126h-85c-16 0-30 16-30 35v91z m240-140l-227 250c-8 9-19 14-31 14h-292c-59 0-106-47-106-104v-625c0-58 47-105 106-105h454c59 0 106 47 106 105v437c0 10-3 20-10 28z" horiz-adv-x="1000" />

<glyph glyph-name="file-remove" unicode="&#xe863;" d="M583 308h-166c-23 0-42-18-42-41 0-23 19-42 42-42h166c23 0 42 19 42 42 0 23-19 41-42 41z m144-291h-454c-13 0-23 9-23 21v625c0 11 10 20 23 20h227v-131c0-65 51-119 113-119h137v-395c0-12-10-21-23-21z m-144 626l115-126h-85c-16 0-30 16-30 35v91z m240-140l-227 250c-8 9-19 14-31 14h-292c-59 0-106-47-106-104v-625c0-58 47-105 106-105h454c59 0 106 47 106 105v437c0 10-3 20-10 28z" horiz-adv-x="1000" />

<glyph glyph-name="file-text" unicode="&#xe864;" d="M500 267h-125c-23 0-42 18-42 41 0 23 19 42 42 42h125c23 0 42-19 42-42 0-23-19-41-42-41z m-167-125c0 23 19 41 42 41h250c23 0 42-18 42-41 0-23-19-42-42-42h-250c-23 0-42 19-42 42z m394-125h-454c-13 0-23 9-23 21v625c0 11 10 20 23 20h227v-131c0-65 51-119 113-119h137v-395c0-12-10-21-23-21z m-144 626l115-126h-85c-16 0-30 16-30 35v91z m240-140l-227 250c-8 9-19 14-31 14h-292c-59 0-106-47-106-104v-625c0-58 47-105 106-105h454c59 0 106 47 106 105v437c0 10-3 20-10 28z" horiz-adv-x="1000" />

<glyph glyph-name="film" unicode="&#xe865;" d="M792 89c0-17-14-31-31-31h-53v84h84v-53z m-584 0v53h84v-84h-53c-17 0-31 14-31 31z m31 553h53v-84h-84v53c0 17 14 31 31 31z m553-31v-53h-84v84h53c17 0 31-14 31-31z m-84-386h84v83h-84v-83z m0 167h84v83h-84v-83z m-333-334h250v584h-250v-584z m-167 167h84v83h-84v-83z m0 167h84v83h-84v-83z m553 333h-522c-63 0-114-51-114-114v-522c0-63 51-114 114-114h522c63 0 114 51 114 114v522c0 63-51 114-114 114z" horiz-adv-x="1000" />

<glyph glyph-name="fire" unicode="&#xe866;" d="M312 454c-84-92-83-237 6-327 43-44 100-69 161-69h0c61 0 119 25 162 69 90 91 90 240 0 332l-125 127c-12-104-51-194-120-194-21 0-56 9-84 62z m167-479h0c-84 0-162 33-221 93-121 124-121 326 0 449l41 41c10 11 26 15 40 11 15-4 26-15 30-29 9-37 21-56 27-63 15 16 42 79 42 185 0 7 0 12-1 18-1 12 4 25 13 33 17 16 43 16 59-1l191-195c122-123 122-325 1-449-59-60-138-93-222-93z" horiz-adv-x="1000" />

<glyph glyph-name="flag" unicode="&#xe867;" d="M750 242c-16-7-49-17-104-17-47 0-88 16-131 33-48 19-98 38-161 38-44 0-78-5-104-12v66 274c17 8 49 18 104 18 47 0 88-16 131-33 48-19 98-39 161-39 39 0 74 5 104 13v-341z m53 413c-19 14-44 18-67 11-24-8-55-12-90-12-47 0-88 16-131 32-48 19-98 39-161 39-120 0-167-40-175-48-8-7-12-18-12-29v-298-131-202c0-23 18-42 41-42 23 0 42 19 42 42v179c17 7 49 17 104 17 47 0 88-16 131-33 48-19 98-38 161-38 75 0 122 15 147 29 25 12 40 37 40 65v360c0 23-11 45-30 59z" horiz-adv-x="1000" />

<glyph glyph-name="flash" unicode="&#xe868;" d="M286 317h214c12 0 23-5 31-14 8-9 12-21 10-32l-18-173 191 285h-214c-12 0-23 5-31 14-8 9-12 21-10 33l18 172-191-285z m177-425c-5 0-10 0-14 2-18 7-29 25-27 44l32 295h-246c-15 0-29 9-36 22-8 14-7 30 2 43l328 492c11 16 31 22 49 16 18-7 30-25 28-44l-33-295h246c15 0 29-9 36-22 8-14 7-30-2-43l-328-492c-8-12-21-18-35-18z" horiz-adv-x="1000" />

<glyph glyph-name="flash-off" unicode="&#xe869;" d="M466 502l11 100-44-67-61 60 130 195c11 16 31 22 49 16 18-7 30-25 28-44l-33-295h246c15 0 29-9 36-22 8-14 7-30-2-43l-104-156-60 60 52 77h-129l-119 119z m397-456l-667 667c-16 16-42 16-59 0-16-16-16-43 0-59l667-667c8-8 19-12 29-12 11 0 22 4 30 12 16 17 16 43 0 59z m-340 52l11 101-118 118h-130l52 77-60 60-104-156c-9-13-10-29-2-43 7-13 21-22 36-22h246l-32-295c-2-19 9-37 27-44 4-2 9-2 14-2 14 0 27 6 35 18l130 195-60 60-45-67z" horiz-adv-x="1000" />

<glyph glyph-name="flip" unicode="&#xe86a;" d="M596 550c-17 16-17 42 0 59l125 125c16 16 42 16 59 0l125-125c8-8 12-19 12-30 0-10-4-21-12-29-17-17-43-17-59 0l-54 54v-500c0-83-66-150-147-150h-103c-23 0-42 19-42 42 0 23 19 42 42 42h103c35 0 63 29 63 66v500l-53-54c-17-17-43-17-59 0z m-388-454v500c0 83 66 150 147 150h103c23 0 42-19 42-42 0-23-19-41-42-41h-103c-35 0-63-30-63-67v-500l54 54c16 17 42 17 59 0 8-8 12-18 12-29 0-11-4-21-12-30l-125-125c-17-16-43-16-59 0l-125 125c-17 17-17 43 0 59 16 17 42 17 59 0l53-54z" horiz-adv-x="1000" />

<glyph glyph-name="flip-2" unicode="&#xe86b;" d="M300 446c-16-17-42-17-59 0l-125 125c-16 16-16 42 0 59l125 125c9 8 19 12 30 12 11 0 21-4 29-12 17-17 17-43 0-59l-54-54h500c83 0 150-66 150-147v-103c0-23-19-42-42-42-23 0-41 19-41 42v103c0 35-30 63-67 63l-500 0 54-53c17-17 17-43 0-59z m454-388h-500c-83 0-150 66-150 147v103c0 23 19 42 42 42 23 0 42-19 42-42v-103c0-35 29-63 66-63h500l-54 54c-17 16-17 42 0 59 8 8 19 12 29 12 11 0 22-4 30-12l125-125c16-17 16-43 0-59l-125-126c-17-16-43-16-59 0-17 17-17 43 0 60l54 53z" horiz-adv-x="1000" />

<glyph glyph-name="folder" unicode="&#xe86c;" d="M167 277v-180c0-10 9-18 21-18h625c11 0 20 8 20 18v358c0 10-9 18-20 18h-313c-12 0-24 6-32 15l-109 133h-171c-12 0-21-8-21-18v-326z m646-281h-625c-58 0-105 45-105 101v506c0 56 47 101 105 101h191c13 0 25-5 33-15l108-133h293c57 0 104-45 104-101v-358c0-56-47-101-104-101z" horiz-adv-x="1000" />

<glyph glyph-name="folder-add" unicode="&#xe86d;" d="M583 308h-41v42c0 23-19 42-42 42-23 0-42-19-42-42v-42h-41c-23 0-42-18-42-41 0-23 19-42 42-42h41v-42c0-23 19-41 42-41 23 0 42 18 42 41v42h41c23 0 42 19 42 42 0 23-19 41-42 41z m250-211c0-10-9-18-20-18h-625c-12 0-21 8-21 18v180 326c0 10 9 18 21 18h171l109-133c8-9 20-15 32-15h313c11 0 20-8 20-18v-358z m-20 459h-293l-108 133c-8 10-20 15-33 15h-191c-58 0-105-45-105-101v-506c0-56 47-101 105-101h625c57 0 104 45 104 101v358c0 56-47 101-104 101z" horiz-adv-x="1000" />

<glyph glyph-name="folder-remove" unicode="&#xe86e;" d="M583 308h-166c-23 0-42-18-42-41 0-23 19-42 42-42h166c23 0 42 19 42 42 0 23-19 41-42 41z m250-211c0-10-9-18-20-18h-625c-12 0-21 8-21 18v180 326c0 10 9 18 21 18h171l109-133c8-9 20-15 32-15h313c11 0 20-8 20-18v-358z m-20 459h-293l-108 133c-8 10-20 15-33 15h-191c-58 0-105-45-105-101v-506c0-56 47-101 105-101h625c57 0 104 45 104 101v358c0 56-47 101-104 101z" horiz-adv-x="1000" />

<glyph glyph-name="funnel" unicode="&#xe86f;" d="M453 123l85-64v190c0 6 1 13 5 19l179 332h-445l172-332c3-6 4-13 4-19v-126z m126-190c-9 0-17 3-25 9l-168 127c-10 8-16 20-16 33v136l-199 385c-6 13-6 28 2 40 7 13 21 20 35 20h584c14 0 28-7 36-20 7-13 7-28 0-41l-207-384v-263c0-16-9-30-23-37-6-3-12-5-19-5z" horiz-adv-x="1000" />

<glyph glyph-name="gift" unicode="&#xe870;" d="M542 58h187v167h-187v-167z m-271 0h187v167h-187v-167z m-63 409c0 3 1 6 1 8h130 119v-167h-249c0 2-1 5-1 9v150z m84 133c0 23 21 42 47 42 53 0 85-46 102-84h-102c-26 0-47 19-47 42z m369 42c26 0 47-19 47-42 0-23-21-42-47-42h-103c18 38 50 84 103 84z m131-175v-150c0-4-1-7-1-9h-249v167h119 130c0-2 1-5 1-8z m8 91h-16c5 13 8 27 8 42 0 69-59 125-131 125-80 0-131-50-161-100-30 50-81 100-161 100-72 0-131-56-131-125 0-15 4-29 8-42h-16c-42 0-75-40-75-91v-150c0-46 27-83 63-90v-182c0-39 33-70 75-70h474c42 0 76 31 76 70v182c35 7 62 44 62 90v150c0 51-33 91-75 91z" horiz-adv-x="1000" />

<glyph glyph-name="github" unicode="&#xe871;" d="M677-67c-23 0-42 19-42 42v108c2 28-6 52-23 69-10 12-14 29-8 43 5 15 18 26 34 27 101 12 195 47 195 221 0 33-9 65-28 93-16 25-22 55-17 85 4 20 4 40 0 59-17-5-46-17-87-46-11-7-24-9-36-5-75 21-154 21-229 0-12-4-25-2-35 5-42 29-70 41-88 46-4-19-4-39 0-59 5-30-1-61-18-86-18-28-27-60-27-93 0-162 78-206 196-221 15-2 28-12 33-27 6-15 2-31-8-43-16-17-25-41-23-65l0-33c0-1 0-3 0-5l0-73c0-23-19-42-42-42-23 0-41 19-41 42v24c-112-15-176 45-220 87-19 17-36 33-48 37-23 5-36 28-30 50 6 23 28 36 51 30 33-8 58-32 84-56 43-41 83-79 163-64v0c-2 22 1 45 9 66-86 22-208 84-208 293 0 49 14 97 41 139 6 7 7 16 6 25-8 45-4 92 14 134 5 11 14 20 26 24 14 4 65 12 161-50 78 18 159 18 237 0 96 62 147 54 161 50 12-4 21-13 26-24 18-42 23-89 14-134-1-9 0-17 5-24 27-41 42-89 42-139 0-211-122-273-208-293 8-22 11-46 9-70l0-105c0-23-18-42-41-42z" horiz-adv-x="1000" />

<glyph glyph-name="globe" unicode="&#xe872;" d="M609 35c44 63 89 155 98 273h123c-15-127-103-232-221-273z m-439 273h124c9-119 54-210 98-273-118 41-206 146-222 273z m223 358c-44-63-89-155-99-274h-124c16 128 104 233 223 274z m-15-274c13 136 83 231 123 275 42-45 110-139 122-275h-245z m0-84h245c-12-136-82-231-122-275-44 46-111 139-123 275z m452 84h-123c-8 118-52 210-97 272 117-41 205-146 220-272z m87-42c0 229-187 416-416 417 0 0 0 0 0 0 0 0-1 0-1 0-230 0-417-187-417-417 0-230 187-417 417-417 0 0 1 0 1 0 0 0 0 0 0 0 0 0 0 0 0 0 229 1 416 188 416 417z" horiz-adv-x="1000" />

<glyph glyph-name="globe-2" unicode="&#xe873;" d="M704 87c-7 18-18 34-27 47-4 7-9 14-13 21-16 28-10 39 16 83l4 8c22 35 23 70 24 100 0 15 1 29 4 42 6 31 71 39 111 44 6-26 10-54 10-82 0-107-51-202-129-263z m-497 105c26-7 55-12 84-12 45 0 91 11 131 42 71 56 71 128 71 185 0 38 0 70 16 98 8 15 26 26 47 38 12 8 25 15 38 25 26 21 46 48 59 78 58-30 106-77 138-134-59-9-144-28-161-106-4-20-5-40-5-57-1-24-2-43-12-61l-5-7c-27-45-57-96-16-168 5-8 11-17 16-25 14-22 21-33 21-45-39-17-83-26-129-26-127 0-237 71-293 175z m293 491c26 0 50-3 74-8-7-16-17-30-32-41-9-7-19-13-29-19-27-16-58-35-77-70-26-47-26-95-26-138 0-56-2-89-39-119-57-45-145-20-199 3-3 19-5 39-5 59 0 184 149 333 333 333z m0 84c-230 0-417-187-417-417 0-230 187-417 417-417 230 0 417 187 417 417 0 230-187 417-417 417z" horiz-adv-x="1000" />

<glyph glyph-name="google" unicode="&#xe874;" d="M500 683c-91 0-176-35-239-101-63-65-97-151-94-242 5-171 148-316 319-323 182-7 338 134 347 316 0 5 0 28 0 50h-291v-66h221l-17-54c-30-96-106-162-204-177-73-10-148 11-208 58-58 46-94 114-100 185-6 75 19 147 70 202 70 75 182 104 278 73l32 59c-36 14-74 20-114 20z m0-750c-6 0-12 0-18 1-214 9-392 190-398 404-4 114 38 221 117 302 79 82 186 127 299 127 60 0 118-13 172-37 15-7 27-20 32-36 5-16 4-33-4-48l-54-99c-15-28-48-39-77-27-68 28-153 10-204-45-35-38-52-88-48-140 4-48 29-94 69-126 42-33 94-48 144-40 46 7 84 30 110 65h-121c-34 0-61 27-61 61v111c0 34 27 61 61 61h337c33 0 60-27 61-60 0-26 0-71-1-79-11-221-196-395-416-395z" horiz-adv-x="1000" />

<glyph glyph-name="grid" unicode="&#xe875;" d="M625 58v167h167l0-167h-167z m167 250h-167c-46 0-83-37-83-83v-167c0-46 37-83 83-83h167c46 0 83 37 83 83v167c0 46-37 83-83 83z m-584-250v167h167l0-167h-167z m167 250h-167c-46 0-83-37-83-83v-167c0-46 37-83 83-83h167c46 0 83 37 83 83v167c0 46-37 83-83 83z m250 167v167h167l0-167h-167z m167 250h-167c-46 0-83-37-83-83v-167c0-46 37-83 83-83h167c46 0 83 37 83 83v167c0 46-37 83-83 83z m-584-250v167h167l0-167h-167z m167 250h-167c-46 0-83-37-83-83v-167c0-46 37-83 83-83h167c46 0 83 37 83 83v167c0 46-37 83-83 83z" horiz-adv-x="1000" />

<glyph glyph-name="hard-drive" unicode="&#xe876;" d="M292 183c0 23 18 42 41 42 23 0 42-19 42-42 0-23-19-41-42-41-23 0-41 18-41 41z m208 42h167c23 0 41-19 41-42 0-23-18-41-41-41h-167c-23 0-42 18-42 41 0 23 19 42 42 42z m250-167h-500c-23 0-42 19-42 42v208h584v-208c0-23-19-42-42-42z m-402 561c7 14 21 23 37 23h230c16 0 30-9 37-23l114-227h-532l114 227z m518-242l-139 279c-21 43-64 69-112 69h-230c-48 0-91-26-112-69l-139-279c-6-11-9-24-9-37v-240c0-69 56-125 125-125h500c69 0 125 56 125 125v240c0 13-3 26-9 37z" horiz-adv-x="1000" />

<glyph glyph-name="hash" unicode="&#xe877;" d="M404 267l31 166h161l-30-166h-162z m429 0h-179l31 166h148c23 0 42 19 42 42 0 23-19 42-42 42h-133l29 159c4 22-12 44-36 48-23 4-46-11-50-34l-32-173h-161l29 159c4 22-12 44-36 48-23 4-46-11-50-34l-32-173h-194c-23 0-42-19-42-42 0-23 19-42 42-42h179l-30-166h-149c-23 0-42-19-42-42 0-23 19-42 42-42h133l-28-158c-5-23 11-45 35-49 24-4 46 11 50 34l32 173h161l-28-158c-5-23 11-45 35-49 24-4 46 11 50 34l32 173h194c23 0 42 19 42 42 0 23-19 42-42 42z" horiz-adv-x="1000" />

<glyph glyph-name="headphones" unicode="&#xe878;" d="M750 58c-46 0-83 38-83 84 0 46 37 83 83 83 46 0 83-37 83-83 0-46-37-84-83-84z m-500 167c46 0 83-37 83-83 0-46-37-84-83-84-46 0-83 38-83 84 0 46 37 83 83 83z m250 542c-230 0-417-194-417-432v-193c0-92 75-167 167-167 92 0 167 75 167 167 0 92-75 166-167 166-30 0-59-8-83-23v50c0 192 149 348 333 348 184 0 333-156 333-348v-50c-24 15-52 23-83 23-92 0-167-74-167-166 0-92 75-167 167-167 92 0 167 75 167 167v193c0 238-187 432-417 432z" horiz-adv-x="1000" />

<glyph glyph-name="heart" unicode="&#xe879;" d="M301 600c-36 0-70-14-95-39-53-53-53-138 0-191l294-294 294 294c53 53 53 138 0 191-50 50-139 50-190 0l-74-75c-16-16-44-16-59 0l-75 75c-25 25-59 39-95 39z m199-625c-11 0-22 4-29 12l-324 324c-85 85-85 224 0 309 41 41 96 63 154 63 58 0 113-22 154-63l45-46 45 46c41 41 96 63 154 63 58 0 113-22 154-63 85-85 85-224 0-309l-323-324c-8-8-19-12-30-12z" horiz-adv-x="1000" />

<glyph glyph-name="height" unicode="&#xe87a;" d="M125 683h292c23 0 41-18 41-41 0-23-18-42-41-42h-292c-23 0-42 19-42 42 0 23 19 41 42 41z m125-291h167c23 0 41-19 41-42 0-23-18-42-41-42h-167c-23 0-42 19-42 42 0 23 19 42 42 42z m167-292h-84c-23 0-41-19-41-42 0-23 18-41 41-41h84c23 0 41 18 41 41 0 23-18 42-41 42z m375 57l54 52c17 16 43 16 59-1 16-17 16-43-1-59l-125-121c-8-7-19-11-29-11-11 0-21 4-29 12l-125 125c-17 16-17 43 0 59 16 16 42 16 59 0l53-54v385l-54-53c-17-16-43-15-59 1-16 17-15 43 1 59l125 121c17 15 42 15 59-1l125-125c16-16 16-42 0-59-9-8-19-12-30-12-11 0-21 4-29 12l-54 54v-384z" horiz-adv-x="1000" />

<glyph glyph-name="home" unicode="&#xe87b;" d="M791 17h-124v291c0 23-19 42-42 42h-250c-23 0-42-19-42-42v-291h-125l1 350 291 298 292-299-1-349z m-374 0h166v250h-166v-250z m434 409l-321 328c-16 16-44 16-60 0l-321-328c-15-16-24-38-24-60v-349c0-46 35-84 79-84h171 250 171c44 0 79 38 79 84v349c0 22-9 44-24 60z" horiz-adv-x="1000" />

<glyph glyph-name="image" unicode="&#xe87c;" d="M333 433c35 0 63 28 63 63 0 34-28 62-63 62-34 0-62-28-62-62 0-35 28-63 62-63z m417-375h-477l292 244c11 9 29 9 39 0l188-160v-42c0-23-19-42-42-42z m-500 584h500c23 0 42-19 42-42v-348l-134 113c-41 35-106 35-146 1l-304-253v487c0 23 19 42 42 42z m500 83h-500c-69 0-125-56-125-125v-500c0-69 56-125 125-125h500c69 0 125 56 125 125v500c0 69-56 125-125 125z" horiz-adv-x="1000" />

<glyph glyph-name="inbox" unicode="&#xe87d;" d="M750 58h-500c-23 0-42 19-42 42v208h84v-125c0-23 18-41 41-41h334c23 0 41 18 41 41v125h84v-208c0-23-19-42-42-42z m-402 561c7 14 21 23 37 23h230c16 0 30-9 37-23l114-227h-99c-23 0-42-19-42-42v-125h-250v125c0 23-19 42-42 42h-99l114 227z m518-242l-139 279c-21 43-64 69-112 69h-230c-48 0-91-26-112-69l-139-279c-6-11-9-24-9-37v-240c0-69 56-125 125-125h500c69 0 125 56 125 125v240c0 13-3 26-9 37z" horiz-adv-x="1000" />

<glyph glyph-name="info" unicode="&#xe87e;" d="M458 517c0 23 19 41 42 41 23 0 42-18 42-41 0-23-19-42-42-42-23 0-42 19-42 42z m0-125c0 23 19 41 42 41 23 0 42-18 42-41v-209c0-23-19-41-42-41-23 0-42 18-42 41v209z m42-375c-184 0-333 149-333 333 0 184 149 333 333 333 184 0 333-149 333-333 0-184-149-333-333-333z m0 750c-230 0-417-187-417-417 0-230 187-417 417-417 230 0 417 187 417 417 0 230-187 417-417 417z" horiz-adv-x="1000" />

<glyph glyph-name="keypad" unicode="&#xe87f;" d="M792 17c-23 0-42 18-42 41 0 23 19 42 42 42 23 0 41-19 41-42 0-23-18-41-41-41z m0 166c-69 0-125-56-125-125 0-69 56-125 125-125 69 0 125 56 125 125 0 69-56 125-125 125z m-292-166c-23 0-42 18-42 41 0 23 19 42 42 42 23 0 42-19 42-42 0-23-19-41-42-41z m0 166c-69 0-125-56-125-125 0-69 56-125 125-125 69 0 125 56 125 125 0 69-56 125-125 125z m-292-166c-23 0-41 18-41 41 0 23 18 42 41 42 23 0 42-19 42-42 0-23-19-41-42-41z m0 166c-69 0-125-56-125-125 0-69 56-125 125-125 69 0 125 56 125 125 0 69-56 125-125 125z m584 125c-23 0-42 19-42 42 0 23 19 42 42 42 23 0 41-19 41-42 0-23-18-42-41-42z m0 167c-69 0-125-56-125-125 0-69 56-125 125-125 69 0 125 56 125 125 0 69-56 125-125 125z m-292-167c-23 0-42 19-42 42 0 23 19 42 42 42 23 0 42-19 42-42 0-23-19-42-42-42z m0 167c-69 0-125-56-125-125 0-69 56-125 125-125 69 0 125 56 125 125 0 69-56 125-125 125z m-292-167c-23 0-41 19-41 42 0 23 18 42 41 42 23 0 42-19 42-42 0-23-19-42-42-42z m0 167c-69 0-125-56-125-125 0-69 56-125 125-125 69 0 125 56 125 125 0 69-56 125-125 125z m584 208c23 0 41-18 41-41 0-23-18-42-41-42-23 0-42 19-42 42 0 23 19 41 42 41z m0-166c69 0 125 56 125 125 0 69-56 125-125 125-69 0-125-56-125-125 0-69 56-125 125-125z m-292 83c-23 0-42 19-42 42 0 23 19 41 42 41 23 0 42-18 42-41 0-23-19-42-42-42z m0 167c-69 0-125-56-125-125 0-69 56-125 125-125 69 0 125 56 125 125 0 69-56 125-125 125z m-292-167c-23 0-41 19-41 42 0 23 18 41 41 41 23 0 42-18 42-41 0-23-19-42-42-42z m0 167c-69 0-125-56-125-125 0-69 56-125 125-125 69 0 125 56 125 125 0 69-56 125-125 125z" horiz-adv-x="1000" />

<glyph glyph-name="layers" unicode="&#xe880;" d="M740 203l-240-138-240 138 71 30 148-86c7-3 14-5 21-5 7 0 14 2 21 5l148 86 71-30z m-261 111c7-4 14-6 21-6 7 0 14 2 21 6l148 85 71-30-240-138-240 138 71 30 148-85z m21 324l240-102-240-138-240 138 240 102z m375-261c-1 16-11 30-25 36l-90 38 94 54c14 8 22 23 21 39-1 16-11 30-25 36l-334 142c-10 4-22 4-32 0l-334-142c-14-6-24-20-25-36-1-16 7-31 21-39l94-54-90-38c-14-6-24-20-25-36-1-16 7-31 21-38l94-54-90-39c-14-6-24-20-25-35-1-16 7-31 21-39l333-192c7-3 14-5 21-5 7 0 14 2 21 5l333 192c14 8 22 23 21 39-1 15-11 29-25 35l-90 39 94 54c14 7 22 22 21 38z" horiz-adv-x="1000" />

<glyph glyph-name="layout" unicode="&#xe881;" d="M750 58h-208v375h250v-333c0-23-19-42-42-42z m-542 42v333h250v-375h-208c-23 0-42 19-42 42z m42 542h500c23 0 42-19 42-42v-83h-584v83c0 23 19 42 42 42z m500 83h-500c-69 0-125-56-125-125v-117-16-367c0-69 56-125 125-125h500c69 0 125 56 125 125v367 16 117c0 69-56 125-125 125z" horiz-adv-x="1000" />

<glyph glyph-name="link" unicode="&#xe882;" d="M375 183h-75c-87 0-166 64-174 152-9 99 69 182 166 182h83c23 0 42 18 42 41 0 23-19 42-42 42h-75c-127 0-240-91-256-217-20-152 99-283 248-283h83c23 0 42 19 42 42 0 23-19 41-42 41z m-42 167c0-23 19-42 42-42h250c23 0 42 19 42 42 0 23-19 42-42 42h-250c-23 0-42-19-42-42z m365 250c128 0 243-92 258-218 19-152-99-282-248-282h-83c-23 0-42 19-42 42 0 23 19 41 42 41h83c97 0 175 84 166 182-7 88-87 152-174 152h-75c-23 0-42 18-42 41 0 23 19 42 52 42h63z" horiz-adv-x="1000" />

<glyph glyph-name="link-2" unicode="&#xe883;" d="M480 688c91 91 238 107 339 28 122-95 130-272 24-378l-59-59c-16-16-43-16-59 0-17 16-17 43 0 59l59 60c69 69 65 184-11 248-68 57-170 46-232-17l-53-53c-17-16-43-16-60 0-16 16-16 43 8 67l44 45z m74-225l-167-167c-16-16-16-42 0-59 8-8 19-12 30-12 10 0 21 4 29 12l167 167c16 16 16 43 0 59-16 16-43 16-59 0z m-42-338l-53-53c-63-62-165-73-233-16-76 63-80 178-11 247l59 59c17 16 17 43 0 59-16 16-43 16-59 0l-53-53c-91-90-107-235-28-336 94-123 272-131 378-25l59 59c16 16 16 43 0 59-16 17-43 17-59 0z" horiz-adv-x="1000" />

<glyph glyph-name="linkedin" unicode="&#xe884;" d="M167 433h0l0-416h83v416h-83z m83-500h-83c-46 0-84 38-84 84v416c0 46 38 84 84 84h83c46 0 83-38 83-84v-416c0-46-37-84-83-84z m396 430c6 0 13-1 19-2 57-9 99-61 99-121v-223h69v227c0 105-84 189-187 189-103 0-188-84-188-189v-227h70v227c0 35 15 68 42 91 21 18 48 28 76 28z m187-430h-69c-46 0-83 38-83 84v223c0 20-13 36-29 39-14 2-24-4-28-8-8-6-13-16-13-27v-227c0-46-37-84-83-84h-70c-46 0-83 38-83 84v227c0 151 122 273 271 273 149 0 271-122 271-273v-227c0-46-38-84-84-84z m-625 792c-23 0-41-19-41-42 0-23 18-41 41-41 23 0 42 18 42 41 0 23-19 42-42 42z m0-167c-69 0-125 56-125 125 0 69 56 125 125 125 69 0 125-56 125-125 0-69-56-125-125-125z" horiz-adv-x="1000" />

<glyph glyph-name="list" unicode="&#xe885;" d="M125 558c0 23 19 42 42 42 23 0 41-19 41-42 0-23-18-41-41-41-23 0-42 18-42 41z m0-208c0 23 19 42 42 42 23 0 41-19 41-42 0-23-18-42-41-42-23 0-42 19-42 42z m42-167c-23 0-42-18-42-41 0-23 19-42 42-42 23 0 41 19 41 42 0 23-18 41-41 41z m164 209h505c22 0 39-18 39-39v-6c0-21-17-39-39-39h-505c-22 0-39 18-39 39v6c0 21 17 39 39 39z m505-209h-505c-22 0-39-17-39-39v-5c0-21 17-39 39-39h505c22 0 39 18 39 39v5c0 22-17 39-39 39z m-505 417h505c22 0 39-17 39-39v-5c0-22-17-39-39-39h-505c-22 0-39 17-39 39v5c0 22 17 39 39 39z" horiz-adv-x="1000" />

<glyph glyph-name="loader" unicode="&#xe886;" d="M458 725c0 23 19 42 42 42 23 0 42-19 42-42v-83c0-23-19-42-42-42-23 0-42 19-42 42v83z m334-333h83c23 0 42-19 42-42 0-23-19-42-42-42h-83c-23 0-42 19-42 42 0 23 19 42 42 42z m-542-42c0 23-19 42-42 42h-83c-23 0-42-19-42-42 0-23 19-42 42-42h83c23 0 42 19 42 42z m-50 289c16 17 43 18 59 2l60-58c17-16 17-43 1-59-8-9-19-13-30-13-10 0-21 4-29 12l-60 58c-16 16-17 42-1 58z m510-128c10 0 21 4 29 12l60 58c16 16 17 42 1 58-16 17-43 18-59 2l-60-58c-17-16-17-43-1-59 8-9 19-13 30-13z m-252-453c0 23 19 42 42 42 23 0 42-19 42-42v-83c0-23-19-42-42-42-23 0-42 19-42 42v83z m281 119c-17 16-43 16-59-1-16-16-16-43 1-59l60-57c8-8 18-12 29-12 11 0 22 4 30 13 16 16 15 43-1 59l-60 57z m-538-57l60 57c17 16 43 16 59-1 16-16 16-43-1-59l-60-57c-8-8-18-12-29-12-11 0-21 4-30 13-16 16-15 43 1 59z" horiz-adv-x="1000" />

<glyph glyph-name="lock" unicode="&#xe887;" d="M500 183c-23 0-42 19-42 42 0 23 19 42 42 42 23 0 42-19 42-42 0-23-19-42-42-42z m0 167c-69 0-125-56-125-125 0-69 56-125 125-125 69 0 125 56 125 125 0 69-56 125-125 125z m250-292c0-23-19-41-42-41h-416c-23 0-42 18-42 41v334c0 23 19 41 42 41h41 84 166 84 41c23 0 42-18 42-41v-334z m-333 537c0 49 37 88 83 88 46 0 83-39 83-88v-78h-166v78z m291-78h-41v78c0 95-75 172-167 172-92 0-167-77-167-172v-78h-41c-69 0-125-56-125-125v-334c0-69 56-125 125-125h416c69 0 125 56 125 125v334c0 69-56 125-125 125z" horiz-adv-x="1000" />

<glyph glyph-name="log-in" unicode="&#xe888;" d="M708 683h84c23 0 41-18 41-41v-584c0-23-18-41-41-41h-84c-23 0-41 18-41 41 0 23 18 42 41 42h42v500h-42c-23 0-41 19-41 42 0 23 18 41 41 41z m-275-133c19 14 45 10 59-8l125-167c11-14 11-34 0-49l-117-167c-8-11-21-17-34-17-8 0-17 2-24 7-19 14-23 40-10 58l72 102c-1 0-1 0-2 0-1 0-1-1-2-1h-333c-23 0-42 19-42 42 0 23 19 42 42 42h333 0l-75 100c-14 18-10 44 8 58z" horiz-adv-x="1000" />

<glyph glyph-name="log-out" unicode="&#xe889;" d="M333 642c0-23-18-42-41-42h-42v-500h42c23 0 41-19 41-42 0-23-18-41-41-41h-84c-23 0-41 18-41 41v584c0 23 18 41 41 41h84c23 0 41-18 41-41z m417-101l117-167c11-15 11-35 0-49l-125-167c-8-11-21-16-34-16-8 0-17 2-25 8-18 14-22 40-8 58l75 100h0-333c-23 0-42 19-42 42 0 23 19 42 42 42h333c1 0 1 0 2-1 1 0 1 0 2 0l-72 102c-13 19-9 45 10 58 19 13 45 9 58-10z" horiz-adv-x="1000" />

<glyph glyph-name="map" unicode="&#xe88a;" d="M792 123l-84 37v417l84-37v-417z m-250 417l83 37v-417l-83-37v417z m-167 37l83-37v-417l-83 37v417z m-167-37l84 37v-417l-84-37v417z m642 65l-166 75c-1 0-1 0-2 0-2 1-4 1-5 2-2 0-4 1-5 1-2 0-3 0-5 0-2 0-4 0-6 0-1 0-3-1-4-1-2-1-4-1-5-2-1 0-2 0-2 0l-150-67-150 67c0 0-1 0-1 0-2 1-4 1-6 2-1 0-3 1-5 1-1 0-3 0-4 0-2 0-4 0-6 0-1 0-3-1-4-1-2-1-4-1-6-2 0 0-1 0-2 0l-166-75c-15-7-25-22-25-38v-509c0-14 7-27 19-35 7-4 15-6 23-6 6 0 11 1 17 3l149 68 150-68c1 0 1 0 2 0 5-2 10-3 15-3 5 0 10 1 15 3 1 0 2 0 2 0l150 68 149-68c6-2 12-3 17-3 8 0 16 2 23 6 12 8 19 21 19 35v509c0 16-10 31-25 38z" horiz-adv-x="1000" />

<glyph glyph-name="maximize" unicode="&#xe88b;" d="M542 433h-42v42c0 23-19 42-42 42-23 0-41-19-41-42v-42h-42c-23 0-42-18-42-41 0-23 19-42 42-42h42v-42c0-23 18-41 41-41 23 0 42 18 42 41v42h42c23 0 41 19 41 42 0 23-18 41-41 41z m-334-41c0 138 113 250 250 250 138 0 250-112 250-250 0-138-112-250-250-250-137 0-250 112-250 250z m655-346l-142 142c44 56 71 127 71 204 0 184-150 333-334 333-183 0-333-149-333-333 0-184 150-334 333-334 77 0 148 27 204 71l142-142c8-8 19-12 29-12 11 0 22 4 30 12 16 17 16 43 0 59z" horiz-adv-x="1000" />

<glyph glyph-name="menu" unicode="&#xe88c;" d="M165 600h671c21 0 39-18 39-39v-5c0-21-18-39-39-39h-671c-22 0-40 18-40 39v5c0 21 18 39 40 39z m671-208h-671c-22 0-40-18-40-40v-4c0-22 18-40 40-40h671c21 0 39 18 39 40v4c0 22-18 40-39 40z m0-209h-671c-22 0-40-17-40-39v-4c0-22 18-40 40-40h671c21 0 39 18 39 40v4c0 22-18 39-39 39z" horiz-adv-x="1000" />

<glyph glyph-name="menu-2" unicode="&#xe88d;" d="M164 600h672c22 0 39-17 39-39v-5c0-22-17-39-39-39h-672c-21 0-39 17-39 39v5c0 22 18 39 39 39z m44-250c0-23-18-42-41-42-23 0-42 19-42 42 0 23 19 42 42 42 23 0 41-19 41-42z m123 42h505c22 0 39-18 39-39v-6c0-21-17-39-39-39h-505c-22 0-39 18-39 39v6c0 21 17 39 39 39z m505-209h-672c-21 0-39-17-39-39v-5c0-21 18-39 39-39h672c22 0 39 18 39 39v5c0 22-17 39-39 39z" horiz-adv-x="1000" />

<glyph glyph-name="menu-arrow" unicode="&#xe88e;" d="M165 642h671c21 0 39-18 39-40v-4c0-22-18-40-39-40h-671c-22 0-40 18-40 40v4c0 22 18 40 40 40z m671-250h-590l54 54c17 16 17 42 0 59-16 16-42 16-59 0l-125-125c-16-17-16-43 0-59l125-125c9-9 19-13 30-13 11 0 21 4 29 13 17 16 17 42 0 59l-54 53h590c21 0 39 18 39 40v4c0 22-18 40-39 40z m0-250h-671c-22 0-40-18-40-40v-4c0-22 18-40 40-40h671c21 0 39 18 39 40v4c0 22-18 40-39 40z" horiz-adv-x="1000" />

<glyph glyph-name="message-circle" unicode="&#xe88f;" d="M292 392c0 23 18 41 41 41 23 0 42-18 42-41 0-23-19-42-42-42-23 0-41 19-41 42z m208 41c-23 0-42-18-42-41 0-23 19-42 42-42 23 0 42 19 42 42 0 23-19 41-42 41z m167 0c-23 0-42-18-42-41 0-23 19-42 42-42 23 0 41 19 41 42 0 23-18 41-41 41z m162-95c-21-136-130-248-266-274-65-12-132-5-192 21-17 7-35 11-52 11-8 0-16-1-24-3l-117-23 24 117c5 25 2 51-9 76-26 60-33 127-20 192 25 135 137 245 273 266 108 17 214-17 290-94 76-76 110-181 93-289z m-34 348c-96 96-227 138-362 117-170-26-310-163-342-333-16-81-7-164 25-240 4-9 6-18 4-26l-36-179c-3-14 2-28 12-38 7-8 18-12 29-12 3 0 5 0 8 1l179 36c10 2 20-1 26-4 76-32 159-41 241-26 169 32 306 173 333 343 20 134-22 266-117 361z" horiz-adv-x="1000" />

<glyph glyph-name="message-square" unicode="&#xe890;" d="M292 433c0 23 18 42 41 42 23 0 42-19 42-42 0-23-19-41-42-41-23 0-41 18-41 41z m208 42c-23 0-42-19-42-42 0-23 19-41 42-41 23 0 42 18 42 41 0 23-19 42-42 42z m167 0c-23 0-42-19-42-42 0-23 19-41 42-41 23 0 41 18 41 41 0 23-18 42-41 42z m166-250c0-23-18-42-41-42h-436c-22 0-44-6-64-17l-125-76v552c0 23 18 41 41 41h584c23 0 41-18 41-41v-417z m-41 542h-584c-69 0-125-56-125-125v-625c0-15 8-29 22-37 6-3 13-5 20-5 7 0 15 2 22 6l188 113c7 4 14 6 21 6h436c69 0 125 56 125 125v417c0 69-56 125-125 125z" horiz-adv-x="1000" />

<glyph glyph-name="mic" unicode="&#xe891;" d="M500 683c-46 0-83-37-83-83v-208c0-46 37-84 83-84 46 0 83 38 83 84v208c0 46-37 83-83 83z m167-291c0-92-75-167-167-167-92 0-167 75-167 167v208c0 92 75 167 167 167 92 0 167-75 167-167v-208z m83 41c23 0 42-18 42-41 0-147-109-268-250-289v-86h87c21 0 38-17 38-38v-8c0-21-17-38-38-38h-258c-21 0-38 17-38 38v8c0 21 17 38 38 38h87v86c-141 21-250 142-250 289 0 23 19 41 42 41 23 0 42-18 42-41 0-115 93-209 208-209 115 0 208 94 208 209 0 23 19 41 42 41z" horiz-adv-x="1000" />

<glyph glyph-name="mic-off" unicode="&#xe892;" d="M417 600c0 46 37 83 83 83 46 0 83-37 83-83v-208c0-2 0-3 0-4l0 0 0 0c0-1 0-2 0-3l66-66c11 22 18 46 18 73v208c0 92-75 167-167 167-81 0-149-59-163-136l80-80v49z m375-208c0 23-19 41-42 41-23 0-42-18-42-41 0-38-11-73-28-104l61-61c32 47 51 104 51 165z m-288-167c-2 0-3 0-4 0-92 0-167 75-167 167v7l174-173c-1 0-2 0-3-1z m359-179l-667 667c-16 16-42 16-59 0-16-16-16-43 0-59l667-667c8-8 19-12 29-12 11 0 22 4 30 12 16 17 16 43 0 59z m-321-29h83c23 0 42-19 42-42 0-23-19-42-42-42h-250c-23 0-42 19-42 42 0 23 19 42 42 42h83v86c-141 21-250 142-250 289 0 23 19 41 42 41 23 0 42-18 42-41 0-115 93-209 208-209 15 0 30 2 44 5l66-66c-21-9-44-15-68-19v-86z" horiz-adv-x="1000" />

<glyph glyph-name="minimize" unicode="&#xe893;" d="M542 433h-167c-23 0-42-18-42-41 0-23 19-42 42-42h167c23 0 41 19 41 42 0 23-18 41-41 41z m-334-41c0 138 113 250 250 250 138 0 250-112 250-250 0-138-112-250-250-250-137 0-250 112-250 250z m655-346l-142 142c44 56 71 127 71 204 0 184-150 333-334 333-183 0-333-149-333-333 0-184 150-334 333-334 77 0 148 27 204 71l142-142c8-8 19-12 29-12 11 0 22 4 30 12 16 17 16 43 0 59z" horiz-adv-x="1000" />

<glyph glyph-name="minus" unicode="&#xe894;" d="M792 308h-584c-23 0-41 19-41 42 0 23 18 42 41 42h584c23 0 41-19 41-42 0-23-18-42-41-42z" horiz-adv-x="1000" />

<glyph glyph-name="minus-circle" unicode="&#xe895;" d="M625 392h-250c-23 0-42-19-42-42 0-23 19-42 42-42h250c23 0 42 19 42 42 0 23-19 42-42 42z m-125-375c-184 0-333 149-333 333 0 184 149 333 333 333 184 0 333-149 333-333 0-184-149-333-333-333z m0 750c-230 0-417-187-417-417 0-230 187-417 417-417 230 0 417 187 417 417 0 230-187 417-417 417z" horiz-adv-x="1000" />

<glyph glyph-name="minus-square" unicode="&#xe896;" d="M625 392h-250c-23 0-42-19-42-42 0-23 19-42 42-42h250c23 0 42 19 42 42 0 23-19 42-42 42z m167-292c0-23-19-42-42-42h-500c-23 0-42 19-42 42v500c0 23 19 42 42 42h500c23 0 42-19 42-42v-500z m-42 625h-500c-69 0-125-56-125-125v-500c0-69 56-125 125-125h500c69 0 125 56 125 125v500c0 69-56 125-125 125z" horiz-adv-x="1000" />

<glyph glyph-name="monitor" unicode="&#xe897;" d="M833 267c0-23-18-42-41-42h-288-8-288c-23 0-41 19-41 42v333c0 23 18 42 41 42h584c23 0 41-19 41-42v-333z m-41 458h-584c-69 0-125-56-125-125v-333c0-69 56-125 125-125h250v-84h-166c-23 0-42-18-42-41 0-23 19-42 42-42h416c23 0 42 19 42 42 0 23-19 41-42 41h-166v84h250c69 0 125 56 125 125v333c0 69-56 125-125 125z" horiz-adv-x="1000" />

<glyph glyph-name="moon" unicode="&#xe898;" d="M310 645c-21-15-40-32-57-51-119-132-115-344 8-471 66-68 153-105 247-106 1 0 2 0 3 0 93 0 180 36 246 101 14 14 26 28 37 44-131-16-265 28-361 123-95 95-139 229-123 360z m201-712c-1 0-2 0-3 0-117 1-226 48-306 132-154 158-158 421-11 585 46 51 102 89 166 114 15 6 33 2 44-9 12-12 16-29 10-44-46-128-15-272 81-367 96-96 240-127 368-81 15 6 32 2 44-10 11-12 15-29 9-44-22-57-55-107-97-150-82-81-190-126-305-126z" horiz-adv-x="1000" />

<glyph glyph-name="more-horizontal" unicode="&#xe899;" d="M125 350c0 46 37 83 83 83 46 0 84-37 84-83 0-46-38-83-84-83-46 0-83 37-83 83z m375 83c-46 0-83-37-83-83 0-46 37-83 83-83 46 0 83 37 83 83 0 46-37 83-83 83z m292 0c-46 0-84-37-84-83 0-46 38-83 84-83 46 0 83 37 83 83 0 46-37 83-83 83z" horiz-adv-x="1000" />

<glyph glyph-name="more-vertical" unicode="&#xe89a;" d="M500 558c46 0 83 38 83 84 0 46-37 83-83 83-46 0-83-37-83-83 0-46 37-84 83-84z m0-125c-46 0-83-37-83-83 0-46 37-83 83-83 46 0 83 37 83 83 0 46-37 83-83 83z m-83-375c0 46 37 84 83 84 46 0 83-38 83-84 0-46-37-83-83-83-46 0-83 37-83 83z" horiz-adv-x="1000" />

<glyph glyph-name="move" unicode="&#xe89b;" d="M905 379l-125 125c-17 17-43 17-59 1-17-17-17-43 0-59l53-54h-232v233l54-54c8-9 18-13 29-13 11 0 21 4 29 13 17 16 17 42 1 58l-125 125c-8 8-17 12-29 13-11 0-22-5-30-12l-125-125c-17-17-17-43 0-59 16-17 42-17 58 0l54 53v-232h-233l54 54c17 16 17 42 1 58-17 17-43 17-59 1l-125-125c-8-8-13-18-13-29 0-11 5-22 13-30l125-125c8-9 18-13 29-13 11 0 21 4 29 13 17 16 17 42 1 58l-54 54h232v-233l-53 54c-17 17-43 17-59 1-17-17-17-43 0-59l124-125c8-8 18-13 29-13h1c11 0 21 5 29 12l125 126c17 16 17 42 1 58-17 17-43 17-59 1l-54-54v232h233l-54-53c-17-17-17-43 0-59 8-9 18-13 29-13 11 0 21 4 29 13l125 124c8 8 13 18 13 29 0 11-5 22-12 30z" horiz-adv-x="1000" />

<glyph glyph-name="music" unicode="&#xe89c;" d="M646 141c-34 0-62 28-62 63 0 34 28 62 62 62 30 0 55-22 61-50v0c1-4 1-8 1-12 0-35-28-63-62-63z m-374-83c-34 0-62 28-62 63 0 34 28 62 62 62 30 0 55-22 61-50v0c1-4 2-8 2-12 0-35-28-63-63-63z m517 167v458c0 13-5 25-15 33-10 8-23 11-35 8l-374-83c-19-4-33-21-33-41v-347c-18 8-38 13-60 13-80 0-145-65-145-145 0-81 65-146 145-146 81 0 146 65 146 146 0 7-1 14-2 21v425l290 64v-295c-18 8-38 13-60 13-80 0-145-65-145-145 0-81 65-146 145-146 80 0 146 65 146 146 0 7-1 14-3 21z" horiz-adv-x="1000" />

<glyph glyph-name="navigation" unicode="&#xe89d;" d="M500 279c8 0 16-2 23-7l203-134-226 452-226-452 203 134c7 5 15 7 23 7z m333-304c-8 0-16 2-23 7l-310 206-310-206c-16-11-37-9-51 3-14 13-18 33-10 50l334 667c14 28 60 28 74 0l334-667c8-17 4-37-10-50-8-7-18-10-28-10z" horiz-adv-x="1000" />

<glyph glyph-name="navigation-2" unicode="&#xe89e;" d="M328 471l216-44c17-3 30-16 33-33l44-216 147 440-440-147z m283-496c-1 0-2 0-2 0-19 1-35 15-39 33l-69 343-343 69c-18 4-32 20-33 39-1 18 11 36 29 42l666 222c15 5 32 1 43-10 11-11 15-28 10-43l-222-666c-6-18-22-29-40-29z" horiz-adv-x="1000" />

<glyph glyph-name="npm" unicode="&#xe89f;" d="M500 58h167v417h-167v-417z m-250 584c-23 0-42-19-42-42v-500c0-23 19-42 42-42h500c23 0 42 19 42 42v500c0 23-19 42-42 42h-500z m500-667h-500c-69 0-125 56-125 125v500c0 69 56 125 125 125h500c69 0 125-56 125-125v-500c0-69-56-125-125-125z" horiz-adv-x="1000" />

<glyph glyph-name="options" unicode="&#xe8a0;" d="M500 600c-23 0-42 19-42 42 0 23 19 41 42 41 23 0 42-18 42-41 0-23-19-42-42-42z m125 42c0 69-56 125-125 125-69 0-125-56-125-125 0-55 35-100 83-118v-549c0-23 19-42 42-42 23 0 42 19 42 42v549c48 18 83 63 83 118z m-375-542c-23 0-42 19-42 42 0 23 19 41 42 41 23 0 42-18 42-41 0-23-19-42-42-42z m42 159v466c0 23-19 42-42 42-23 0-42-19-42-42v-466c-48-17-83-63-83-117 0-55 35-100 83-118v-49c0-23 19-42 42-42 23 0 42 19 42 42v49c48 18 83 63 83 118 0 54-35 100-83 117z m458 8c-23 0-42 18-42 41 0 23 19 42 42 42 23 0 42-19 42-42 0-23-19-41-42-41z m125 41c0 55-35 100-83 118v299c0 23-19 42-42 42-23 0-42-19-42-42v-299c-48-18-83-63-83-118 0-54 35-100 83-117v-216c0-23 19-42 42-42 23 0 42 19 42 42v216c48 17 83 63 83 117z" horiz-adv-x="1000" />

<glyph glyph-name="options-2" unicode="&#xe8a1;" d="M458 58c-23 0-41 19-41 42 0 23 18 42 41 42 23 0 42-19 42-42 0-23-19-42-42-42z m417 84h-299c-18 48-63 83-118 83-54 0-100-35-117-83h-216c-23 0-42-19-42-42 0-23 19-42 42-42h216c17-48 63-83 117-83 55 0 100 35 118 83h299c23 0 42 19 42 42 0 23-19 42-42 42z m-83 166c-23 0-42 19-42 42 0 23 19 42 42 42 23 0 41-19 41-42 0-23-18-42-41-42z m0 167c-55 0-100-35-118-83h-549c-23 0-42-19-42-42 0-23 19-42 42-42h549c18-48 63-83 118-83 69 0 125 56 125 125 0 69-56 125-125 125z m-500 167c23 0 41-19 41-42 0-23-18-42-41-42-23 0-42 19-42 42 0 23 19 42 42 42z m-167-84h49c18-48 63-83 118-83 54 0 100 35 117 83h466c23 0 42 19 42 42 0 23-19 42-42 42h-466c-17 48-63 83-117 83-55 0-100-35-118-83h-49c-23 0-42-19-42-42 0-23 19-42 42-42z" horiz-adv-x="1000" />

<glyph glyph-name="pantone" unicode="&#xe8a2;" d="M792 58h-354l148 159h206v-159z m-584 80v87h159v-87c0-44-35-80-79-80-44 0-80 36-80 80z m0 379h159v125h-159v-125z m0-209h159v125h-159v-125z m351 226l112-104-220-236v224l108 116z m274-233h-169l96 103c16 16 15 43-2 59l-172 160c-8 8-19 12-30 11-11 0-22-5-29-13l-76-81v143c0 23-19 42-42 42h-242c-23 0-42-19-42-42v-545c0-90 73-163 163-163h545c23 0 42 19 42 42v242c0 23-19 42-42 42z" horiz-adv-x="1000" />

<glyph glyph-name="paper-plane" unicode="&#xe8a3;" d="M625 107l-77 232 232 232-155-464z m96 523l-232-232-232 77 464 155z m195 97c0 4-1 8-2 11 0 2-1 3-1 4-2 5-5 9-8 13-4 3-8 6-13 8-1 0-2 1-3 1-4 1-8 2-12 2-1 0-2 1-3 1-4 0-8-1-12-2l-750-250c-17-6-29-22-29-40 0-18 12-34 29-39l355-119 119-355c5-17 21-29 39-29 18 0 34 12 40 29l250 750c1 4 2 8 2 12 0 1-1 2-1 3z" horiz-adv-x="1000" />

<glyph glyph-name="pause-circle" unicode="&#xe8a4;" d="M333 475c0 23 19 42 42 42 23 0 42-19 42-42v-250c0-23-19-42-42-42-23 0-42 19-42 42v250z m250 0c0 23 19 42 42 42 23 0 42-19 42-42v-250c0-23-19-42-42-42-23 0-42 19-42 42v250z m-83-458c-184 0-333 149-333 333 0 184 149 333 333 333 184 0 333-149 333-333 0-184-149-333-333-333z m0 750c-230 0-417-187-417-417 0-230 187-417 417-417 230 0 417 187 417 417 0 230-187 417-417 417z" horiz-adv-x="1000" />

<glyph glyph-name="people" unicode="&#xe8a5;" d="M750 433c0 23-19 42-42 42-23 0-41-19-41-42 0-23 18-41 41-41 23 0 42 18 42 41z m83 0c0-69-56-125-125-125-69 0-125 56-125 125 0 69 56 125 125 125 69 0 125-56 125-125z m-375 125c0 46-37 84-83 84-46 0-83-38-83-84 0-46 37-83 83-83 46 0 83 37 83 83z m84 0c0-92-75-166-167-166-92 0-167 74-167 166 0 92 75 167 167 167 92 0 167-75 167-167z m39-335c36 28 81 44 127 44 115 0 209-94 209-209 0-23-19-41-42-41-23 0-42 18-42 41 0 69-56 125-125 125-28 0-55-9-77-27 23-41 36-89 36-139 0-23-19-42-42-42-23 0-42 19-42 42 0 115-93 208-208 208-115 0-208-93-208-208 0-23-19-42-42-42-23 0-42 19-42 42 0 161 131 291 292 291 80 0 153-32 206-85z" horiz-adv-x="1000" />

<glyph glyph-name="percent" unicode="&#xe8a6;" d="M823 673c-15 14-38 14-53 0l-592-593c-8-7-11-17-11-26 0-10 3-19 11-26 14-15 37-15 52 0l593 592c14 15 14 38 0 53z m-156-615c-35 0-63 28-63 63 0 34 28 62 63 62 34 0 62-28 62-62 0-35-28-63-62-63z m0 209c-81 0-146-66-146-146 0-81 65-146 146-146 80 0 146 65 146 146 0 80-66 146-146 146z m-334 333c35 0 63-28 63-62 0-35-28-63-63-63-34 0-62 28-62 63 0 34 28 62 62 62z m0-208c81 0 146 65 146 146 0 80-65 145-146 145-80 0-145-65-145-145 0-81 65-146 145-146z" horiz-adv-x="1000" />

<glyph glyph-name="person" unicode="&#xe8a7;" d="M583 558c0 46-37 84-83 84-46 0-83-38-83-84 0-46 37-83 83-83 46 0 83 37 83 83z m84 0c0-92-75-166-167-166-92 0-167 74-167 166 0 92 75 167 167 167 92 0 167-75 167-167z m-459-541c0 161 131 291 292 291 161 0 292-130 292-291 0-23-19-42-42-42-23 0-42 19-42 42 0 115-93 208-208 208-115 0-208-93-208-208 0-23-19-42-42-42-23 0-42 19-42 42z" horiz-adv-x="1000" />

<glyph glyph-name="person-add" unicode="&#xe8a8;" d="M417 642c46 0 83-38 83-84 0-46-37-83-83-83-46 0-84 37-84 83 0 46 38 84 84 84z m0-250c92 0 166 74 166 166 0 92-74 167-166 167-92 0-167-75-167-167 0-92 75-166 167-166z m0-84c-161 0-292-130-292-291 0-23 19-42 42-42 23 0 41 19 41 42 0 115 94 208 209 208 115 0 208-93 208-208 0-23 19-42 42-42 23 0 41 19 41 42 0 161-130 291-291 291z m416 292h42c23 0 42-19 42-42 0-23-19-41-42-41h-42v-42c0-23-18-42-41-42-23 0-42 19-42 42v42h-42c-23 0-41 18-41 41 0 23 18 42 41 42h42v42c0 23 19 41 42 41 23 0 41-18 41-41v-42z" horiz-adv-x="1000" />

<glyph glyph-name="person-delete" unicode="&#xe8a9;" d="M417 642c46 0 83-38 83-84 0-46-37-83-83-83-46 0-84 37-84 83 0 46 38 84 84 84z m0-250c92 0 166 74 166 166 0 92-74 167-166 167-92 0-167-75-167-167 0-92 75-166 167-166z m436 146l30 30c17 17 17 44 0 61-17 17-44 17-61 0l-30-30-31 30c-17 17-44 17-61 0-17-17-17-44 0-61l31-30-31-31c-17-17-17-44 0-61 17-17 44-17 61 0l31 31 30-31c17-17 44-17 61 0 17 17 17 44 0 61l-30 31z m-728-521c0 161 131 291 292 291 161 0 291-130 291-291 0-23-18-42-41-42-23 0-42 19-42 42 0 115-93 208-208 208-115 0-209-93-209-208 0-23-18-42-41-42-23 0-42 19-42 42z" horiz-adv-x="1000" />

<glyph glyph-name="person-done" unicode="&#xe8aa;" d="M417 642c46 0 83-38 83-84 0-46-37-83-83-83-46 0-84 37-84 83 0 46 38 84 84 84z m0-250c92 0 166 74 166 166 0 92-74 167-166 167-92 0-167-75-167-167 0-92 75-166 167-166z m485 281c-17 15-43 13-58-4l-78-89-27 29c-15 17-41 19-58 3-18-15-19-41-4-58l58-65c8-9 19-14 31-14h1c12 0 23 5 31 14l109 125c15 18 13 44-5 59z m-777-656c0 161 131 291 292 291 161 0 291-130 291-291 0-23-18-42-41-42-23 0-42 19-42 42 0 115-93 208-208 208-115 0-209-93-209-208 0-23-18-42-41-42-23 0-42 19-42 42z" horiz-adv-x="1000" />

<glyph glyph-name="person-remove" unicode="&#xe8ab;" d="M417 642c46 0 83-38 83-84 0-46-37-83-83-83-46 0-84 37-84 83 0 46 38 84 84 84z m0-250c92 0 166 74 166 166 0 92-74 167-166 167-92 0-167-75-167-167 0-92 75-166 167-166z m458 208h-167c-23 0-41-19-41-42 0-23 18-41 41-41h167c23 0 42 18 42 41 0 23-19 42-42 42z m-750-583c0 161 131 291 292 291 161 0 291-130 291-291 0-23-18-42-41-42-23 0-42 19-42 42 0 115-93 208-208 208-115 0-209-93-209-208 0-23-18-42-41-42-23 0-42 19-42 42z" horiz-adv-x="1000" />

<glyph glyph-name="phone" unicode="&#xe8ac;" d="M275 683c-60 0-108-48-108-108 0-308 250-558 558-558 60 0 108 48 108 108 0 5 0 9 0 14l-193 44c-4-7-8-15-12-23-19-36-33-62-68-48-137 48-250 161-299 300-15 33 14 48 50 66 7 4 15 8 22 12l-44 193c-5 0-9 0-14 0z m450-750c-354 0-642 288-642 642 0 106 86 192 192 192 11 0 22-1 32-3 10-2 20-4 30-8 14-4 24-16 27-30l57-248c3-14-1-28-10-38-6-6-6-6-58-33 42-91 115-163 203-204 28 52 28 52 34 58 10 9 24 13 38 10l248-57c14-3 26-13 30-27 4-10 6-20 8-30 2-11 3-21 3-32 0-106-86-192-192-192z" horiz-adv-x="1000" />

<glyph glyph-name="phone-call" unicode="&#xe8ad;" d="M725 17c-308 0-558 250-558 558 0 60 48 108 108 108 5 0 9 0 14 0l44-193c-6-3-11-6-17-9l-6-3c-35-18-64-33-49-66 49-139 162-252 299-300 35-14 49 12 68 48l0 0c2 4 5 9 7 13 1 3 3 7 5 10l192-44c1-5 1-9 1-14 0-60-48-108-108-108z m181 170c-4 14-16 24-30 27l-248 57c-14 3-28-1-38-10-6-6-6-6-34-58-88 41-161 113-203 204 52 27 52 27 58 33 9 10 13 24 10 38l-57 248c-3 14-13 26-27 30-10 4-20 6-30 8-10 2-21 3-32 3-106 0-192-86-192-192 0-354 288-642 642-642 106 0 192 86 192 192 0 11-1 21-3 32-2 10-4 20-8 30z m-364 330c69 0 125-56 125-125 0-23 18-42 41-42 23 0 42 19 42 42 0 115-93 208-208 208-23 0-42-19-42-42 0-23 19-41 42-41z m291-125c0 161-130 291-291 291-23 0-42 19-42 42 0 23 19 42 42 42 207 0 375-168 375-375 0-23-19-42-42-42-23 0-42 19-42 42z" horiz-adv-x="1000" />

<glyph glyph-name="phone-missed" unicode="&#xe8ae;" d="M167 575c0-308 250-558 558-558 60 0 108 48 108 108 0 5 0 9-1 14l-192 44c-2-3-4-7-5-10-2-4-5-9-7-13l0-1c-19-35-33-61-68-47-137 48-250 161-299 300-13 33 13 47 49 66 8 4 16 8 23 12l-44 193c-5 0-9 0-14 0-60 0-108-48-108-108z m739-388c4-10 6-20 8-30 2-11 3-21 3-32 0-106-86-192-192-192-354 0-642 288-642 642 0 106 86 192 192 192 11 0 22-1 32-3 10-2 20-4 30-8 14-4 24-16 27-30l57-248c3-14-1-28-10-38-6-6-6-6-58-33 41-91 114-163 203-204 28 52 28 52 34 58 10 9 24 13 38 10l248-57c14-3 26-13 30-27z m-186 301c-17-17-45-17-62 0-16 16-16 44 0 61l31 30-31 31c-16 17-16 44 0 61 17 17 45 17 62 0l30-31 31 31c16 17 44 17 61 0 16-17 16-44 0-61l-31-31 31-30c16-17 16-45 0-61-17-17-45-17-61 0l-31 30-30-30z" horiz-adv-x="1000" />

<glyph glyph-name="phone-off" unicode="&#xe8af;" d="M279 240c-70 94-112 210-112 335 0 60 48 108 108 108 5 0 9 0 14-1l44-192-7-4 0 0c-5-2-11-5-16-8-36-19-62-33-49-66 16-45 38-86 66-124l59 60c-12 18-23 38-33 59 52 27 52 27 58 33 9 10 13 24 10 38l-57 248c-3 14-13 26-27 30-10 4-20 6-30 8-10 2-21 3-32 3-106 0-192-86-192-192 0-149 52-285 137-394l59 59z m544 433c-15 14-38 14-53 0l-592-593c-8-7-11-17-11-26 0-10 3-19 11-26 14-15 37-15 52 0l593 592c14 15 14 38 0 53z m83-486c4-10 6-20 8-30 2-11 3-21 3-32 0-106-86-192-192-192-149 0-285 52-394 137l59 59c94-70 209-112 335-112 60 0 108 48 108 108 0 5 0 9-1 14l-192 44-12-23 0 0c-19-36-33-62-68-48-44 15-84 38-122 65l60 59c18-12 38-24 58-33 28 52 28 52 34 58l0 0c10 9 24 13 38 10l248-57c14-3 26-13 30-27z" horiz-adv-x="1000" />

<glyph glyph-name="pie-chart" unicode="&#xe8b0;" d="M868 264c-22 8-46-3-54-25-47-133-173-222-314-222-184 0-333 149-333 333 0 141 89 267 222 314 22 8 33 32 25 54-7 21-31 33-53 25-166-59-278-217-278-393 0-230 187-417 417-417 176 0 334 112 393 278 8 22-4 46-25 53z m-285 169v247c128-18 229-119 247-247h-247z m-41 334c-23 0-42-19-42-42v-333c0-23 19-42 42-42h333c23 0 42 19 42 42 0 207-169 375-375 375z" horiz-adv-x="1000" />

<glyph glyph-name="pin" unicode="&#xe8b1;" d="M500 392c-34 0-62 28-62 62 0 35 28 63 62 63 35 0 63-28 63-63 0-34-28-62-63-62z m0 208c-80 0-146-65-146-146 0-80 66-146 146-146 80 0 146 66 146 146 0 81-66 146-146 146z m0-569c-70 66-250 252-250 406 0 136 112 246 250 246 138 0 250-110 250-246 0-154-180-340-250-406z m0 736c-184 0-333-148-333-330 0-228 293-483 306-494 8-6 17-10 27-10 10 0 19 4 27 10 13 11 306 266 306 494 0 182-149 330-333 330z" horiz-adv-x="1000" />

<glyph glyph-name="play-circle" unicode="&#xe8b2;" d="M479 242v216l117-108-117-108z m35 298c-21 19-51 24-77 12-25-11-41-34-41-62v-280c0-27 16-51 41-62 9-4 19-6 29-6 18 0 35 6 48 19l152 140c14 13 22 31 22 49 0 19-8 36-22 49l-152 141z m-14-523c-184 0-333 149-333 333 0 184 149 333 333 333 184 0 333-149 333-333 0-184-149-333-333-333z m0 750c-230 0-417-187-417-417 0-230 187-417 417-417 230 0 417 187 417 417 0 230-187 417-417 417z" horiz-adv-x="1000" />

<glyph glyph-name="plus" unicode="&#xe8b3;" d="M792 392h-250v250c0 23-19 41-42 41-23 0-42-18-42-41v-250h-250c-23 0-41-19-41-42 0-23 18-42 41-42h250v-250c0-23 19-41 42-41 23 0 42 18 42 41v250h250c23 0 41 19 41 42 0 23-18 42-41 42z" horiz-adv-x="1000" />

<glyph glyph-name="plus-circle" unicode="&#xe8b4;" d="M625 392h-83v83c0 23-19 42-42 42-23 0-42-19-42-42v-83h-83c-23 0-42-19-42-42 0-23 19-42 42-42h83v-83c0-23 19-42 42-42 23 0 42 19 42 42v83h83c23 0 42 19 42 42 0 23-19 42-42 42z m-125-375c-184 0-333 149-333 333 0 184 149 333 333 333 184 0 333-149 333-333 0-184-149-333-333-333z m0 750c-230 0-417-187-417-417 0-230 187-417 417-417 230 0 417 187 417 417 0 230-187 417-417 417z" horiz-adv-x="1000" />

<glyph glyph-name="plus-square" unicode="&#xe8b5;" d="M625 392h-83v83c0 23-19 42-42 42-23 0-42-19-42-42v-83h-83c-23 0-42-19-42-42 0-23 19-42 42-42h83v-83c0-23 19-42 42-42 23 0 42 19 42 42v83h83c23 0 42 19 42 42 0 23-19 42-42 42z m167-292c0-23-19-42-42-42h-500c-23 0-42 19-42 42v500c0 23 19 42 42 42h500c23 0 42-19 42-42v-500z m-42 625h-500c-69 0-125-56-125-125v-500c0-69 56-125 125-125h500c69 0 125 56 125 125v500c0 69-56 125-125 125z" horiz-adv-x="1000" />

<glyph glyph-name="power" unicode="&#xe8b6;" d="M542 350c0-23-19-42-42-42-23 0-42 19-42 42v417c0 23 19 41 42 41 23 0 42-18 42-41v-417z m93 352c11 21 36 29 56 18 139-72 226-213 226-370 0-230-187-417-417-417-230 0-417 187-417 417 0 157 87 298 226 370 20 11 46 3 56-18 11-20 3-45-18-56-111-57-180-171-180-296 0-184 149-333 333-333 184 0 333 149 333 333 0 125-69 239-180 296-21 11-29 36-18 56z" horiz-adv-x="1000" />

<glyph glyph-name="pricetag" unicode="&#xe8b7;" d="M440 498c24-24 24-64 0-88-24-24-64-24-88 0-25 24-25 64 0 88 24 25 64 25 88 0z m-197-185l251-251 295 294-252 251-324 30 30-324z m251-338c-19 0-38 7-53 22l-267 268c-7 6-12 16-12 25l-37 390c-1 12 3 24 12 33 9 9 21 13 34 12l389-36c10-1 19-6 26-12l267-268c14-14 22-33 22-53 0-21-8-40-22-54l-305-305c-15-15-34-22-54-22z" horiz-adv-x="1000" />

<glyph glyph-name="printer" unicode="&#xe8b8;" d="M833 170c0-16-11-28-26-28h-36v83c0 46-37 83-83 83h-375c-46 0-84-37-84-83v-83h-36c-14 0-26 12-26 28v277c0 16 12 28 26 28h57 83 334 83 57c15 0 26-12 26-28v-277z m-520-112v167h375l0-167h-375z m21 584h333v-84h-333l0 84z m473-84h-57v84c0 46-34 83-76 83h-348c-42 0-76-37-76-83v-84h-57c-60 0-110-49-110-111v-277c0-62 50-112 110-112h36c0-46 38-83 84-83h375c46 0 83 37 83 83h36c60 0 110 50 110 112v277c0 62-50 111-110 111z" horiz-adv-x="1000" />

<glyph glyph-name="question-mark" unicode="&#xe8b9;" d="M500 683c115 0 208-93 208-208 0-101-71-185-166-204v-46c0-23-19-42-42-42-23 0-42 19-42 42v83c0 23 19 42 42 42 69 0 125 56 125 125 0 69-56 125-125 125-69 0-125-56-125-125 0-23-19-42-42-42-23 0-41 19-41 42 0 115 93 208 208 208z m-42-625c0 23 19 42 42 42 23 0 42-19 42-42 0-23-19-41-42-41-23 0-42 18-42 41z" horiz-adv-x="1000" />

<glyph glyph-name="radio" unicode="&#xe8ba;" d="M146 392c0 81 39 158 110 218 18 15 20 41 5 59-15 17-41 19-59 5-90-76-139-176-139-282 0-106 49-206 139-282 8-7 18-10 27-10 12 0 24 5 32 15 15 17 13 44-5 59-71 59-110 137-110 218z m354-42c-23 0-42 19-42 42 0 23 19 41 42 41 23 0 42-18 42-41 0-23-19-42-42-42z m0 167c-69 0-125-56-125-125 0-55 36-101 85-118 0-1-1-2-1-3l0 0 0 0 0 0c0-1-1-3-1-4v-250c0-23 19-42 42-42 23 0 42 19 42 42v250c0 1-1 3-1 4l0 0 0 0 0 0c0 1-1 2-1 3 49 17 85 63 85 118 0 69-56 125-125 125z m135 68c15 18 41 20 59 5 63-53 98-124 98-198 0-75-35-146-98-199-8-6-18-10-27-10-12 0-24 5-32 15-15 18-13 44 5 59 44 37 68 85 68 135 0 49-24 97-68 135-18 14-20 41-5 58z m-270 0c-15 18-41 20-58 5-64-53-99-124-99-198 0-75 35-146 99-199 7-6 17-10 26-10 12 0 24 5 32 15 15 18 13 44-5 59-44 37-68 85-68 135 0 49 24 97 68 135 18 14 20 41 5 58z m374 84c15 17 41 19 59 5 90-76 140-176 140-282 0-106-50-206-140-282-8-7-18-10-27-10-12 0-24 5-32 15-15 17-13 44 5 59 71 59 110 137 110 218 0 81-39 158-110 218-18 15-20 41-5 59z" horiz-adv-x="1000" />

<glyph glyph-name="radio-button-off" unicode="&#xe8bb;" d="M500 683c-184 0-333-149-333-333 0-184 149-333 333-333 184 0 333 149 333 333 0 184-149 333-333 333z m0-750c-230 0-417 187-417 417 0 230 187 417 417 417 230 0 417-187 417-417 0-230-187-417-417-417z" horiz-adv-x="1000" />

<glyph glyph-name="radio-button-on" unicode="&#xe8bc;" d="M500 225c-69 0-125 56-125 125 0 69 56 125 125 125 69 0 125-56 125-125 0-69-56-125-125-125z m0 333c-115 0-208-93-208-208 0-115 93-208 208-208 115 0 208 93 208 208 0 115-93 208-208 208z m0-541c-184 0-333 149-333 333 0 184 149 333 333 333 184 0 333-149 333-333 0-184-149-333-333-333z m0 750c-230 0-417-187-417-417 0-230 187-417 417-417 230 0 417 187 417 417 0 230-187 417-417 417z" horiz-adv-x="1000" />

<glyph glyph-name="recording" unicode="&#xe8bd;" d="M750 267c-46 0-83 37-83 83 0 46 37 83 83 83 46 0 83-37 83-83 0-46-37-83-83-83z m-583 83c0 46 37 83 83 83 46 0 83-37 83-83 0-46-37-83-83-83-46 0-83 37-83 83z m583 167c-92 0-167-75-167-167 0-30 9-59 24-83h-213c14 24 23 53 23 83 0 92-75 167-167 167-92 0-167-75-167-167 0-92 75-167 167-167h500c92 0 167 75 167 167 0 92-75 167-167 167z" horiz-adv-x="1000" />

<glyph glyph-name="refresh" unicode="&#xe8be;" d="M846 291c-22 7-45-6-52-27-39-123-154-206-286-206-165 0-300 131-300 292 0 161 135 292 300 292 72 0 140-25 193-70l-90 15c-23 4-44-12-48-34-4-23 12-44 34-48l177-29c3-1 5-1 7-1 5 0 10 1 14 3 2 0 3 1 5 2 3 1 5 3 8 5 1 1 2 3 4 4 1 2 4 4 5 7 1 1 1 4 2 6 1 2 3 4 3 7l32 167c4 22-11 44-34 48-22 4-44-10-48-33l-12-60c-69 60-158 94-252 94-211 0-383-168-383-375 0-207 172-375 383-375 168 0 315 106 365 263 7 22-5 46-27 53z" horiz-adv-x="1000" />

<glyph glyph-name="repeat" unicode="&#xe8bf;" d="M246 642h500c83 0 150-66 150-147v-103c0-23-19-42-42-42-23 0-41 19-41 42v103c0 35-30 63-67 63h-500l54-53c17-17 17-43 0-59-8-9-18-13-29-13-11 0-21 4-30 13l-125 125c-16 16-16 42 0 59l125 125c17 16 43 16 59 0 17-17 17-43 0-59l-54-54z m454-387c16 16 42 16 59 0l125-125c16-17 16-43 0-59l-125-126c-8-8-19-12-30-12-10 0-21 4-29 12-17 17-17 43 0 60l54 53h-500c-83 0-150 66-150 147v103c0 23 19 42 42 42 23 0 42-19 42-42v-103c0-35 29-63 66-63h500l-54 54c-17 16-17 42 0 59z" horiz-adv-x="1000" />

<glyph glyph-name="rewind-left" unicode="&#xe8c0;" d="M729 184l-201 166 201 163v-329z m-333 0l-201 166 201 163v-329z m373 408c-31 14-67 10-92-11l-198-163v108c0 28-17 53-44 66-30 14-66 10-92-11l-212-176c-17-14-27-34-27-55 0-21 10-41 27-55l212-176c16-12 35-19 55-19 13 0 25 3 37 8 27 13 44 38 44 66v108l198-163c15-12 34-19 54-19 13 0 26 3 38 8 27 13 44 38 44 66v352c0 28-17 53-44 66z" horiz-adv-x="1000" />

<glyph glyph-name="rewind-right" unicode="&#xe8c1;" d="M604 187v329l201-166-201-163z m-333 0v329l201-166-201-163z m598 218l-212 176c-26 21-62 25-92 11-27-13-44-38-44-66v-108l-198 163c-25 21-61 25-92 11-27-13-43-38-43-66v-351c0-29 16-54 43-67 12-5 25-8 38-8 20 0 39 7 54 19l198 163v-107c0-29 17-54 44-67 12-5 25-8 37-8 20 0 39 7 55 19l212 176c17 14 27 34 27 55 0 21-10 41-27 55z" horiz-adv-x="1000" />

<glyph glyph-name="save" unicode="&#xe8c2;" d="M792 100c0-23-19-42-42-42h-83v125c0 23-19 42-42 42h-250c-23 0-42-19-42-42v-125h-83c-23 0-42 19-42 42v500c0 23 19 42 42 42h83v-209c0-23 19-41 42-41h167c23 0 41 18 41 41 0 23-18 42-41 42h-125v167h132c11 0 22-5 29-12l202-202c7-8 12-18 12-29v-299z m-375-42h166v84h-166v-84z m421 429l-201 201c-23 24-55 37-88 37h-299c-69 0-125-56-125-125v-500c0-69 56-125 125-125h125 250 125c69 0 125 56 125 125v299c0 33-13 65-37 88z" horiz-adv-x="1000" />

<glyph glyph-name="scissors" unicode="&#xe8c3;" d="M229 100c0-23 19-42 42-42 23 0 42 19 42 42 0 23-19 42-42 42-23 0-42-19-42-42z m0 500c0-23 19-42 42-42 23 0 42 19 42 42 0 23-19 42-42 42-23 0-42-19-42-42z m613 71c16-16 16-42 0-59l-458-459c7-16 12-34 12-53 0-69-56-125-125-125-69 0-125 56-125 125 0 69 56 125 125 125 20 0 38-5 55-13l137 137-138 138c0 0 0 0 0 0 0 1 0 1 0 1-17-8-35-13-54-13-69 0-125 56-125 125 0 69 56 125 125 125 69 0 125-56 125-125 0-19-5-37-13-54 0 0 0 0 1 0 0 0 0 0 0 0l137-137 262 262c16 16 43 16 59 0z m-267-375c16 16 42 16 59 0l208-208c16-16 16-43 0-59-8-8-19-12-29-12-11 0-22 4-30 12l-208 208c-17 17-17 43 0 59z" horiz-adv-x="1000" />

<glyph glyph-name="search" unicode="&#xe8c4;" d="M208 392c0 138 113 250 250 250 138 0 250-112 250-250 0-138-112-250-250-250-137 0-250 112-250 250z m655-346l-142 142c44 56 71 127 71 204 0 184-150 333-334 333-183 0-333-149-333-333 0-184 150-334 333-334 77 0 148 27 204 71l142-142c8-8 19-12 29-12 11 0 22 4 30 12 16 17 16 43 0 59z" horiz-adv-x="1000" />

<glyph glyph-name="settings" unicode="&#xe8c5;" d="M183 366c47-16 84-55 100-104l1-5c18-53 11-109-19-151-5-8-4-17 1-21l87-66c3-2 6-2 8-2 2 0 5 1 7 5l10 13c29 41 75 66 124 68 54 1 104-24 134-69l5-7c3-3 6-4 8-5 2 0 5 0 8 2l86 65c6 5 7 14 2 21l-10 15c-28 41-37 93-23 140 16 52 55 93 104 109l9 3c6 2 10 11 8 18l-33 105c-2 5-5 7-7 8-2 2-5 2-7 1l-15-5c-48-16-101-7-143 24l-4 3c-39 30-62 77-62 127l0 11c0 6-3 9-4 11-2 1-4 3-8 3l-106 0c-6 0-12-6-12-13l0-11c0-50-24-98-63-128l-6-5c-43-33-100-42-151-24-2 0-4 0-6-1-1 0-3-2-5-6l-34-108c-2-8 2-16 10-19l6-2z m176-433c-20 0-40 7-57 19l-86 66c-41 31-50 92-20 134 15 22 19 51 9 78l-2 7c-8 24-25 43-47 50h0l-6 2c-51 18-78 72-62 123l34 108c8 24 24 44 47 56 22 11 47 12 70 4 25-8 53-3 74 13l5 4c19 14 31 38 31 63l0 10c0 53 43 97 95 97h0l106 0c25 0 49-10 67-28 18-19 28-44 28-70l0-12c0-23 11-46 29-59l5-4c19-14 44-18 66-11l14 5c24 8 50 6 72-5 23-12 41-33 48-58l33-105c16-51-11-105-61-122l-8-3c-24-8-43-28-51-53-7-24-3-49 11-69l11-16c30-43 20-103-21-134l-86-65c-21-16-46-22-71-18-26 4-48 18-63 40l-5 7c-15 21-38 34-63 32-24 0-45-12-59-32l-10-13c-15-22-37-36-63-40-4 0-9-1-14-1z m141 480c-34 0-62-28-62-63 0-34 28-62 62-62 35 0 63 28 63 62 0 35-28 63-63 63z m0-209c-80 0-146 66-146 146 0 80 66 146 146 146 80 0 146-66 146-146 0-80-66-146-146-146z" horiz-adv-x="1000" />

<glyph glyph-name="settings-2" unicode="&#xe8c6;" d="M474 17h52v32c0 39 24 74 61 89 38 16 80 8 108-20l22-22 37 37-22 22c-28 28-36 70-20 107 0 0 0 0 0 0l0 1c15 37 50 61 89 61h32v52h-32c-39 0-74 24-89 61-16 38-8 80 20 108l22 22-37 37-22-22c-28-28-70-36-107-20-38 15-62 50-62 89v32h-52v-32c0-39-24-74-61-89-38-16-80-8-108 20l-22 22-37-37 22-22c28-28 36-70 20-107-15-38-50-62-89-62h-32v-52h32c39 0 74-24 89-61 16-38 8-80-20-108l-22-22 37-37 22 22c28 28 70 36 107 20 38-15 62-50 62-89v-32z m65-84h-79c-38 0-69 32-69 70v46c0 6-5 10-10 12-6 2-12 3-17-1l-32-33c-27-27-71-27-99 0l-56 56c-13 14-20 31-20 50 0 19 7 36 21 49l32 32c4 5 3 11 1 16-2 6-6 11-12 11h-46c-38 0-70 31-70 70v79c0 38 32 69 70 69h46c6 0 10 5 12 10 2 6 3 12-1 17l-33 32c-27 27-27 72 0 99l56 56c13 13 31 20 50 20h0c19 0 36-7 49-20l32-32c5-5 11-4 16-2 6 2 11 6 11 12v46c0 38 31 70 70 70h79c38 0 69-32 69-70v-46c0-6 5-10 10-12 6-2 12-3 17 2l32 32c27 27 72 27 99 0l56-56c13-13 20-31 20-50 0-18-7-36-20-49l-32-32c-5-5-4-11-2-16 2-6 6-11 12-11h46c38 0 70-31 70-70v-78c0-39-32-70-70-70h-46c-6 0-10-5-12-10 0 0 0-1 0-1-2-5-3-11 2-16l32-32c27-27 27-71 0-99l-56-56c-13-13-31-20-50-20h0c-18 0-36 7-49 21l-32 32c-5 4-11 3-16 2-6-3-11-7-11-13v-45c0-39-31-71-70-71z m-39 480c-34 0-62-28-62-63 0-34 28-62 62-62 35 0 63 28 63 62 0 35-28 63-63 63z m0-209c-80 0-146 66-146 146 0 80 66 146 146 146 80 0 146-66 146-146 0-80-66-146-146-146z" horiz-adv-x="1000" />

<glyph glyph-name="shake" unicode="&#xe8c7;" d="M542 552c-14 4-27 6-42 6-14 0-28-2-42-6v173c0 23 19 42 42 42 23 0 42-19 42-42v-173z m-313-452c-9 0-19 3-27 10-90 76-139 176-139 282 0 106 49 206 139 282 18 14 44 12 59-5 15-18 13-44-5-59-71-60-110-137-110-218 0-81 39-159 110-218 18-15 20-42 5-59-8-10-20-15-32-15z m271 250c-23 0-42 19-42 42 0 23 19 41 42 41 23 0 42-18 42-41 0-23-19-42-42-42z m0-125c-14 0-28 3-42 6v-214c0-23 19-42 42-42 23 0 42 19 42 42v214c-14-3-27-6-42-6z m135-27c8-10 20-15 32-15 9 0 19 4 27 10 63 54 98 124 98 199 0 74-35 145-98 198-18 15-44 13-59-5-15-17-13-44 5-58 44-38 68-86 68-135 0-50-24-98-68-135-18-15-20-41-5-59z m-302-15c-9 0-19 4-26 10-64 54-99 124-99 199 0 74 35 145 99 198 17 15 43 13 58-5 15-17 13-44-5-58-44-38-68-86-68-135 0-50 24-98 68-135 18-15 20-41 5-59-8-10-20-15-32-15z m406-68c8-10 20-15 32-15 9 0 19 3 27 10 90 76 140 176 140 282 0 106-50 206-140 282-18 14-44 12-59-5-15-18-13-44 5-59 71-60 110-137 110-218 0-81-39-159-110-218-18-15-20-42-5-59z" horiz-adv-x="1000" />

<glyph glyph-name="share" unicode="&#xe8c8;" d="M750 58c-23 0-42 19-42 42 0 23 19 42 42 42 23 0 42-19 42-42 0-23-19-42-42-42z m-542 250c-23 0-41 19-41 42 0 23 18 42 41 42 23 0 42-19 42-42 0-23-19-42-42-42z m542 334c23 0 42-19 42-42 0-23-19-42-42-42-23 0-42 19-42 42 0 23 19 42 42 42z m0-417c-34 0-65-14-87-36l-331 147c1 5 1 9 1 14 0 5 0 9-1 14l331 147c22-22 53-36 87-36 69 0 125 56 125 125 0 69-56 125-125 125-69 0-125-56-125-125 0-5 1-9 1-14l-330-147c-23 22-54 36-88 36-69 0-125-56-125-125 0-69 56-125 125-125 34 0 65 14 88 36l330-147c0-5-1-9-1-14 0-69 56-125 125-125 69 0 125 56 125 125 0 69-56 125-125 125z" horiz-adv-x="1000" />

<glyph glyph-name="shield" unicode="&#xe8c9;" d="M500 677l-292-164v-6c0-197 107-380 279-477l13-7 13 7c172 97 279 280 279 477v6l-292 164z m0-737c-14 0-28 3-41 10l-12 7c-199 112-322 323-322 550v6c0 30 16 58 42 73l292 164c25 14 57 14 82 0l292-164c26-15 42-43 42-73v-6c0-227-123-438-322-550l-12-7c-13-7-27-10-41-10z" horiz-adv-x="1000" />

<glyph glyph-name="shield-off" unicode="&#xe8ca;" d="M541 750l292-164c26-15 42-43 42-73v-6c0-116-32-228-90-324l-61 61c43 79 68 170 68 263v6l-292 164-134-75-61 61 154 87c25 14 57 14 82 0z m-345-37c-16 16-42 16-59 0-16-16-16-43 0-59l667-667c8-8 19-12 29-12 11 0 22 4 30 12 16 17 16 43 0 59l-667 667z m317-683l-13-7-13 7c-172 97-279 280-279 477v6l7 4-59 60c-19-16-31-39-31-64v-6c0-227 123-438 322-550l12-7c13-7 27-10 41-10 14 0 28 3 41 10l12 7c47 27 90 59 127 95l-59 59c-32-31-68-59-108-81z" horiz-adv-x="1000" />

<glyph glyph-name="shopping-bag" unicode="&#xe8cb;" d="M625 392c-23 0-42-19-42-42 0-46-37-83-83-83-46 0-83 37-83 83 0 23-19 42-42 42-23 0-42-19-42-42 0-92 75-167 167-167 92 0 167 75 167 167 0 23-19 42-42 42z m125-334h-500c-23 0-42 19-42 42v375h584v-375c0-23-19-42-42-42z m-412 572c8 7 19 12 30 12h264c11 0 22-5 30-12l71-72h-466l71 72z m500-59l-117 117c-24 24-55 37-89 37h-264c-33 0-65-13-88-37l-118-117c-24-24-37-55-37-89v-382c0-69 56-125 125-125h500c69 0 125 56 125 125v382c0 34-13 65-37 89z" horiz-adv-x="1000" />

<glyph glyph-name="shopping-cart" unicode="&#xe8cc;" d="M683 267h-318l-68 250h511l-125-250z m195 294c-15 24-41 39-70 39h-534l-25 94c-5 18-22 31-41 31h-83c-23 0-42-19-42-42 0-23 19-41 42-41h52l116-428c5-18 22-31 40-31h375c16 0 31 9 38 23l136 273c13 27 12 57-4 82z m-565-461c-35 0-63-28-63-62 0-35 28-63 63-63 34 0 62 28 62 63 0 34-28 62-62 62z m354-62c0 34 28 62 62 62 35 0 63-28 63-62 0-35-28-63-63-63-34 0-62 28-62 63z" horiz-adv-x="1000" />

<glyph glyph-name="shuffle" unicode="&#xe8cd;" d="M792 421c-23 0-42 18-42 41l0 79-512-512c-8-8-19-12-30-12-10 0-21 4-29 12-16 16-16 43 0 59l262 262-243 243c-16 16-16 42 0 59 16 16 43 16 59 0l243-243 191 191-79 0c-23 0-42 19-41 42 0 23 19 41 41 41l180 0c23-1 41-19 41-42l0-179c0-23-18-41-41-41h0z m0-141h0c23 0 42-19 41-42l0-175c1-12-2-25-12-34-8-8-19-12-29-12-1 0-2 0-2 0-1 0-1 0-2 0l-176 0c-23 0-41 19-41 42 0 23 18 42 41 42l79 0-116 115c-17 17-17 43 0 59 16 17 42 17 59 0l116-116 0 80c0 23 19 41 42 41z" horiz-adv-x="1000" />

</font>
</defs>
</svg>
